<svg width="300" height="300" viewBox="0 0 300 300" fill="none" xmlns="http://www.w3.org/2000/svg">
<path d="M240.534 132.822C238.767 124.21 236.564 115.693 233.934 107.304C226.062 82.986 210.9 58.23 185.574 49.464C166.884 42.99 146.928 46.74 131.502 58.752C107.328 77.586 90 103.614 63.414 119.808C41.214 133.332 29.946 155.712 38.214 187.872C46.482 220.032 72.09 239.226 99.66 237.534C122.586 236.13 146.634 238.692 166.728 250.59C184.686 261.222 215.844 252.99 241.182 225.576C255.942 209.598 254.04 188.826 248.706 169.326C245.4 157.308 243.15 145.02 240.534 132.822Z" fill="#00B96D"/>
<path opacity="0.7" d="M240.534 132.822C238.767 124.21 236.564 115.693 233.934 107.304C226.062 82.986 210.9 58.23 185.574 49.464C166.884 42.99 146.928 46.74 131.502 58.752C107.328 77.586 90 103.614 63.414 119.808C41.214 133.332 29.946 155.712 38.214 187.872C46.482 220.032 72.09 239.226 99.66 237.534C122.586 236.13 146.634 238.692 166.728 250.59C184.686 261.222 215.844 252.99 241.182 225.576C255.942 209.598 254.04 188.826 248.706 169.326C245.4 157.308 243.15 145.02 240.534 132.822Z" fill="white"/>
<path d="M80.898 177.846C80.898 177.846 69.822 186.642 64.53 195.804C59.238 204.966 59.4 211.2 59.4 211.2C59.4 211.2 74.9999 200.022 78.5579 192.48C80.6839 187.915 81.4943 182.847 80.898 177.846Z" fill="#00B96D"/>
<path d="M34.098 165.6C34.098 165.6 31.698 181.392 37.482 191.112C43.266 200.832 59.28 210.924 59.28 210.924C59.28 210.924 61.578 203.832 53.202 193.05C44.826 182.268 34.098 165.6 34.098 165.6Z" fill="#00B96D"/>
<path d="M60.12 193.416C59.5852 184.694 56.946 176.23 52.428 168.75C44.886 156.228 35.85 143.55 33.726 138.15C32.317 134.42 31.1761 130.594 30.312 126.702C30.312 126.702 27.168 137.112 33.042 150.966C38.916 164.82 60.12 193.416 60.12 193.416Z" fill="#00B96D"/>
<path d="M59.5499 188.43C59.5499 188.43 68.4539 177.102 74.6039 164.154C80.7539 151.206 79.7699 137.754 79.7699 137.754C79.7699 137.754 68.2259 152.73 64.5539 164.4C62.1996 172.252 60.5254 180.291 59.5499 188.43Z" fill="#00B96D"/>
<path d="M57.792 162.828C57.792 162.828 55.698 144.228 50.682 133.902C45.666 123.576 35.4 107.628 35.4 107.628C35.4 107.628 34.14 125.49 42.21 139.74C50.28 153.99 57.792 162.828 57.792 162.828Z" fill="#00B96D"/>
<path d="M57.3719 152.142C57.3719 152.142 67.8119 136.602 70.6619 125.484C73.5119 114.366 75.9959 95.562 75.9959 95.562C75.9959 95.562 63.4859 108.366 60.4259 124.452C57.3659 140.538 57.3719 152.142 57.3719 152.142Z" fill="#00B96D"/>
<path d="M62.556 85.056C62.556 85.056 52.758 92.256 54.306 107.448C55.854 122.64 57.342 127.734 57.342 127.734C55.8 117.354 62.556 85.056 62.556 85.056Z" fill="#00B96D"/>
<g opacity="0.3">
<path d="M80.898 177.846C80.898 177.846 69.822 186.642 64.53 195.804C59.238 204.966 59.4 211.2 59.4 211.2C59.4 211.2 74.9999 200.022 78.5579 192.48C80.6839 187.915 81.4943 182.847 80.898 177.846Z" fill="white"/>
<path d="M34.098 165.6C34.098 165.6 31.698 181.392 37.482 191.112C43.266 200.832 59.28 210.924 59.28 210.924C59.28 210.924 61.578 203.832 53.202 193.05C44.826 182.268 34.098 165.6 34.098 165.6Z" fill="white"/>
<path d="M60.12 193.416C59.5852 184.694 56.946 176.23 52.428 168.75C44.886 156.228 35.85 143.55 33.726 138.15C32.317 134.42 31.1761 130.594 30.312 126.702C30.312 126.702 27.168 137.112 33.042 150.966C38.916 164.82 60.12 193.416 60.12 193.416Z" fill="white"/>
<path d="M59.5499 188.43C59.5499 188.43 68.4539 177.102 74.6039 164.154C80.7539 151.206 79.7699 137.754 79.7699 137.754C79.7699 137.754 68.2259 152.73 64.5539 164.4C62.1996 172.252 60.5254 180.291 59.5499 188.43Z" fill="white"/>
<path d="M57.792 162.828C57.792 162.828 55.698 144.228 50.682 133.902C45.666 123.576 35.4 107.628 35.4 107.628C35.4 107.628 34.14 125.49 42.21 139.74C50.28 153.99 57.792 162.828 57.792 162.828Z" fill="white"/>
<path d="M57.3719 152.142C57.3719 152.142 67.8119 136.602 70.6619 125.484C73.5119 114.366 75.9959 95.562 75.9959 95.562C75.9959 95.562 63.4859 108.366 60.4259 124.452C57.3659 140.538 57.3719 152.142 57.3719 152.142Z" fill="white"/>
<path d="M62.556 85.056C62.556 85.056 52.758 92.256 54.306 107.448C55.854 122.64 57.342 127.734 57.342 127.734C55.8 117.354 62.556 85.056 62.556 85.056Z" fill="white"/>
</g>
<path d="M59.1 216C59.1 216 60 213.6 60 195.3C60 177 57.6 169.8 57.6 151.8C57.6 133.8 56.4 117 56.4 117" stroke="#00B96D" stroke-miterlimit="10"/>
<path d="M57.732 161.058C57.732 161.058 51.2039 147 48.4439 141.738C45.8879 136.86 42.924 128.94 42.924 128.94" stroke="#00B96D" stroke-miterlimit="10"/>
<path d="M43.428 163.314C43.428 163.314 57.996 190.41 60.12 193.416" stroke="#00B96D" stroke-miterlimit="10"/>
<path d="M59.988 186.144L71.778 158.046" stroke="#00B96D" stroke-miterlimit="10"/>
<path d="M45.936 193.422C48.696 197.934 59.988 209.73 59.988 209.73C59.988 209.73 67.512 201.702 72.282 194.424" stroke="#00B96D" stroke-miterlimit="10"/>
<path d="M57.7319 149.514L65.0039 124.926" stroke="#00B96D" stroke-miterlimit="10"/>
<path d="M67.1219 212.826H50.7059V218.694H52.2539L54.2519 231.594H63.5759L65.5739 218.694H67.1219V212.826Z" fill="#00B96D"/>
<path opacity="0.3" d="M67.1219 212.826H50.7059V218.694H52.2539L54.2519 231.594H63.5759L65.5739 218.694H67.1219V212.826Z" fill="white"/>
<path d="M91.3621 154.26C91.3621 154.26 82.3621 154.758 79.8781 158.88C77.3941 163.002 80.6281 167.244 85.3681 168.996C90.1081 170.748 91.7401 169.992 92.3641 168.87C92.9881 167.748 91.3621 154.26 91.3621 154.26Z" fill="white" stroke="#263238" stroke-linecap="round" stroke-linejoin="round"/>
<path d="M264.6 180C264.6 180 259.8 180.24 244.134 167.718C228.468 155.196 227.514 147.972 204.396 135.918C181.278 123.864 170.196 122.676 169.476 125.322C168.756 127.968 169.236 238.992 172.128 241.398C175.02 243.804 193.8 242.598 208.488 240.198C223.176 237.798 239.088 239.478 244.614 241.398C250.14 243.318 266.514 248.4 266.514 248.4" fill="white"/>
<mask id="mask0_22_1246" style="mask-type:luminance" maskUnits="userSpaceOnUse" x="169" y="124" width="98" height="125">
<path d="M264.6 180C264.6 180 259.8 180.24 244.134 167.718C228.468 155.196 227.514 147.972 204.396 135.918C181.278 123.864 170.196 122.676 169.476 125.322C168.756 127.968 169.236 238.992 172.128 241.398C175.02 243.804 193.8 242.598 208.488 240.198C223.176 237.798 239.088 239.478 244.614 241.398C250.14 243.318 266.514 248.4 266.514 248.4" fill="white"/>
</mask>
<g mask="url(#mask0_22_1246)">
<path d="M198.282 235.8C194.376 232.8 191.682 220.758 195.576 214.746C199.47 208.734 204.576 210.834 208.812 210.834C213.048 210.834 202.812 205.722 198.612 198.498C194.412 191.274 212.754 152.478 210.348 142.848C209.788 140.946 208.854 139.176 207.6 137.64C206.586 137.082 205.53 136.512 204.414 135.93C181.296 123.888 170.214 122.688 169.494 125.334C168.774 127.98 169.254 239.004 172.146 241.41C175.038 243.816 193.818 242.61 208.506 240.21C210.12 239.946 211.74 239.736 213.366 239.568C207.144 238.632 200.292 237.324 198.282 235.8Z" fill="#00B96D"/>
<path opacity="0.5" d="M198.282 235.8C194.376 232.8 191.682 220.758 195.576 214.746C199.47 208.734 204.576 210.834 208.812 210.834C213.048 210.834 202.812 205.722 198.612 198.498C194.412 191.274 212.754 152.478 210.348 142.848C209.788 140.946 208.854 139.176 207.6 137.64C206.586 137.082 205.53 136.512 204.414 135.93C181.296 123.888 170.214 122.688 169.494 125.334C168.774 127.98 169.254 239.004 172.146 241.41C175.038 243.816 193.818 242.61 208.506 240.21C210.12 239.946 211.74 239.736 213.366 239.568C207.144 238.632 200.292 237.324 198.282 235.8Z" fill="white"/>
</g>
<path d="M264.6 180C264.6 180 259.8 180.24 244.134 167.718C228.468 155.196 227.514 147.972 204.396 135.918C181.278 123.864 170.196 122.676 169.476 125.322C168.756 127.968 169.236 238.992 172.128 241.398C175.02 243.804 193.8 242.598 208.488 240.198C223.176 237.798 239.088 239.478 244.614 241.398C250.14 243.318 266.514 248.4 266.514 248.4" stroke="#263238" stroke-linecap="round" stroke-linejoin="round"/>
<path d="M88.6201 106.056C88.6201 106.056 81.2521 104.31 78.0061 110.178C74.7601 116.046 82.8721 122.916 87.9961 124.542L88.6201 106.056Z" fill="#00B96D" stroke="#263238" stroke-linecap="round" stroke-linejoin="round"/>
<path d="M92.8621 106.308C92.8081 105.024 88.9381 105.768 88.2541 105.864C86.4609 106.101 84.7959 106.922 83.517 108.201C82.2381 109.48 81.4167 111.145 81.1801 112.938C80.4781 118.338 85.6081 124.272 90.7141 125.538L93.6061 126.264C93.6061 126.264 92.8621 106.326 92.8621 106.308Z" fill="white" stroke="#263238" stroke-linecap="round" stroke-linejoin="round"/>
<path d="M86.4 181.608C86.4 181.608 80.202 181.854 78.93 187.2C77.658 192.546 85.578 196.2 89.976 196.332L86.4 181.608Z" fill="#00B96D" stroke="#263238" stroke-linecap="round" stroke-linejoin="round"/>
<path d="M91.6141 180.234C91.2901 179.232 86.5921 181.308 86.0701 181.536C84.7078 182.118 83.5755 183.133 82.8487 184.424C82.1219 185.715 81.8412 187.209 82.0501 188.676C82.6861 193.104 88.0501 196.644 92.3461 196.53L94.7881 196.464C94.7881 196.464 91.6201 180.246 91.6141 180.234Z" fill="white" stroke="#263238" stroke-linecap="round" stroke-linejoin="round"/>
<path d="M91.3621 132.282C91.3621 132.282 82.3621 132.78 79.8781 136.902C77.3941 141.024 80.6281 145.266 85.3681 147.018C90.1081 148.77 91.7401 148.014 92.3641 146.892C92.9881 145.77 91.3621 132.282 91.3621 132.282Z" fill="white" stroke="#263238" stroke-linecap="round" stroke-linejoin="round"/>
<path d="M87.0001 160.254C87.0001 160.254 90.3721 167.994 90.1201 174.24C89.8681 180.486 82.7521 182.352 80.1301 181.23C77.5081 180.108 76.3861 166.62 78.1321 162.126C79.8781 157.632 83.2561 157.254 83.2561 157.254" fill="white"/>
<path d="M87.0001 160.254C87.0001 160.254 90.3721 167.994 90.1201 174.24C89.8681 180.486 82.7521 182.352 80.1301 181.23C77.5081 180.108 76.3861 166.62 78.1321 162.126C79.8781 157.632 83.2561 157.254 83.2561 157.254" stroke="#263238" stroke-linecap="round" stroke-linejoin="round"/>
<path d="M78.378 167.622C78.378 167.622 77.4 175.488 77.4 178.86C77.4 182.232 78.144 181.482 79.896 177.36C81.648 173.238 81.75 163.998 78.378 167.622Z" fill="#00B96D" stroke="#263238" stroke-linecap="round" stroke-linejoin="round"/>
<path d="M87.0001 138.276C87.0001 138.276 90.3721 146.016 90.1201 152.262C89.8681 158.508 82.7521 160.38 80.1301 159.252C77.5081 158.124 76.3861 144.642 78.1321 140.148C79.8781 135.654 83.2561 135.276 83.2561 135.276" fill="white"/>
<path d="M87.0001 138.276C87.0001 138.276 90.3721 146.016 90.1201 152.262C89.8681 158.508 82.7521 160.38 80.1301 159.252C77.5081 158.124 76.3861 144.642 78.1321 140.148C79.8781 135.654 83.2561 135.276 83.2561 135.276" stroke="#263238" stroke-linecap="round" stroke-linejoin="round"/>
<path d="M78.378 145.644C78.378 145.644 77.4 153.51 77.4 156.882C77.4 160.254 78.144 159.504 79.896 155.382C81.648 151.26 81.75 142.02 78.378 145.644Z" fill="#00B96D" stroke="#263238" stroke-linecap="round" stroke-linejoin="round"/>
<path d="M229.914 238.014C228.428 232.602 227.697 227.012 227.742 221.4" stroke="#263238" stroke-linecap="round" stroke-linejoin="round"/>
<path d="M232.32 217.062C232.32 217.062 232.08 227.418 233.52 231.03" stroke="#263238" stroke-linecap="round" stroke-linejoin="round"/>
<path d="M200.772 207.672C200.772 207.672 210.648 214.416 222.444 214.416" stroke="#263238" stroke-linecap="round" stroke-linejoin="round"/>
<path d="M248.124 171.066C248.124 171.066 243.324 167.694 237.528 158.304C231.732 148.914 217.8 128.682 215.4 118.566C213 108.45 212.754 105.084 211.308 99.3C209.862 93.516 206.25 90.63 206.976 83.406C207.702 76.182 205.53 72.57 202.176 72.09C198.822 71.61 193.746 71.124 191.1 83.646C188.454 96.168 193.266 113.748 194.952 121.938C196.638 130.128 196.638 137.352 193.266 146.022C189.894 154.692 186.282 166.248 189.666 183.348C193.05 200.448 203.874 205.506 212.304 209.118" fill="white"/>
<mask id="mask1_22_1246" style="mask-type:luminance" maskUnits="userSpaceOnUse" x="188" y="71" width="61" height="139">
<path d="M248.124 171.066C248.124 171.066 243.324 167.694 237.528 158.304C231.732 148.914 217.8 128.682 215.4 118.566C213 108.45 212.754 105.084 211.308 99.3C209.862 93.516 206.25 90.63 206.976 83.406C207.702 76.182 205.53 72.57 202.176 72.09C198.822 71.61 193.746 71.124 191.1 83.646C188.454 96.168 193.266 113.748 194.952 121.938C196.638 130.128 196.638 137.352 193.266 146.022C189.894 154.692 186.282 166.248 189.666 183.348C193.05 200.448 203.874 205.506 212.304 209.118" fill="white"/>
</mask>
<g mask="url(#mask1_22_1246)">
<path d="M200.868 128.052C199.734 114.18 195.204 100.866 194.07 90.672C193.188 82.71 196.104 75.27 197.424 72.39C195.024 73.392 192.624 76.248 191.052 83.646C188.4 96.168 193.218 113.748 194.904 121.938C196.59 130.128 196.59 137.352 193.218 146.022C189.846 154.692 186.234 166.248 189.618 183.348C190.398 187.674 191.977 191.816 194.274 195.564C186.402 171.51 201.972 141.6 200.868 128.052Z" fill="#00B96D"/>
<path opacity="0.5" d="M200.868 128.052C199.734 114.18 195.204 100.866 194.07 90.672C193.188 82.71 196.104 75.27 197.424 72.39C195.024 73.392 192.624 76.248 191.052 83.646C188.4 96.168 193.218 113.748 194.904 121.938C196.59 130.128 196.59 137.352 193.218 146.022C189.846 154.692 186.234 166.248 189.618 183.348C190.398 187.674 191.977 191.816 194.274 195.564C186.402 171.51 201.972 141.6 200.868 128.052Z" fill="white"/>
</g>
<path d="M248.124 171.066C248.124 171.066 243.324 167.694 237.528 158.304C231.732 148.914 217.8 128.682 215.4 118.566C213 108.45 212.754 105.084 211.308 99.3C209.862 93.516 206.25 90.63 206.976 83.406C207.702 76.182 205.53 72.57 202.176 72.09C198.822 71.61 193.746 71.124 191.1 83.646C188.454 96.168 193.266 113.748 194.952 121.938C196.638 130.128 196.638 137.352 193.266 146.022C189.894 154.692 186.282 166.248 189.666 183.348C193.05 200.448 203.874 205.506 212.304 209.118" stroke="#263238" stroke-linecap="round" stroke-linejoin="round"/>
<path d="M209.862 99.354C209.862 99.354 208.11 97.17 203.304 99.792" stroke="#263238" stroke-linecap="round" stroke-linejoin="round"/>
<path d="M203.742 102.192C203.742 102.192 207.24 100.008 210.078 101.976" stroke="#263238" stroke-linecap="round" stroke-linejoin="round"/>
<path d="M211.2 104.16C209.676 104.328 208.143 104.4 206.61 104.376" stroke="#263238" stroke-linecap="round" stroke-linejoin="round"/>
<path d="M206.628 88.302L205.128 88.026C203.58 87.7343 202.186 86.9008 201.197 85.6749C200.207 84.449 199.687 82.9109 199.728 81.336C199.768 79.8761 199.908 78.4207 200.148 76.98C201.108 71.202 201.348 69.036 203.748 69.516C206.148 69.996 207.6 70.716 207.6 73.854C207.6 76.992 206.628 88.302 206.628 88.302Z" fill="#00B96D" stroke="#263238" stroke-linecap="round" stroke-linejoin="round"/>
<path d="M186.738 73.242H94.0981C91.8613 73.242 90.0481 75.0553 90.0481 77.292V250.746C90.0481 252.983 91.8613 254.796 94.0981 254.796H186.738C188.975 254.796 190.788 252.983 190.788 250.746V77.292C190.788 75.0553 188.975 73.242 186.738 73.242Z" fill="#00B96D" stroke="#263238" stroke-linecap="round" stroke-linejoin="round"/>
<path d="M186.738 69.84H94.0981C91.8613 69.84 90.0481 71.6532 90.0481 73.89V247.344C90.0481 249.581 91.8613 251.394 94.0981 251.394H186.738C188.975 251.394 190.788 249.581 190.788 247.344V73.89C190.788 71.6532 188.975 69.84 186.738 69.84Z" fill="#263238" stroke="#263238" stroke-miterlimit="10"/>
<path d="M147.384 80.688H134.844C134.675 80.688 134.507 80.6546 134.35 80.5898C134.194 80.525 134.052 80.43 133.932 80.3102C133.812 80.1904 133.717 80.0482 133.652 79.8917C133.587 79.7351 133.554 79.5674 133.554 79.398C133.554 79.2289 133.587 79.0614 133.652 78.9052C133.717 78.7491 133.812 78.6073 133.932 78.4879C134.052 78.3686 134.194 78.2742 134.351 78.21C134.507 78.1458 134.675 78.1132 134.844 78.114H147.384C147.725 78.114 148.051 78.2493 148.292 78.4901C148.533 78.7309 148.668 79.0575 148.668 79.398C148.669 79.5671 148.636 79.7347 148.572 79.8912C148.508 80.0477 148.413 80.1899 148.294 80.3098C148.175 80.4297 148.033 80.5248 147.877 80.5897C147.721 80.6546 147.553 80.688 147.384 80.688Z" fill="white"/>
<path d="M184.422 235.2H96.4141V80.832H117.276L119.622 82.782C120.442 83.4617 121.473 83.8332 122.538 83.832H159.342C160.446 83.8281 161.512 83.4254 162.342 82.698L164.46 80.832H184.404L184.422 235.2Z" fill="#00B96D" stroke="#263238" stroke-linecap="round" stroke-linejoin="round"/>
<path d="M140.418 164.31C154.319 164.31 165.588 153.041 165.588 139.14C165.588 125.239 154.319 113.97 140.418 113.97C126.517 113.97 115.248 125.239 115.248 139.14C115.248 153.041 126.517 164.31 140.418 164.31Z" fill="white"/>
<mask id="mask2_22_1246" style="mask-type:luminance" maskUnits="userSpaceOnUse" x="115" y="113" width="51" height="52">
<path d="M140.418 164.31C154.319 164.31 165.588 153.041 165.588 139.14C165.588 125.239 154.319 113.97 140.418 113.97C126.517 113.97 115.248 125.239 115.248 139.14C115.248 153.041 126.517 164.31 140.418 164.31Z" fill="white"/>
</mask>
<g mask="url(#mask2_22_1246)">
<path d="M137.544 114C137.544 114 134.946 112.962 128.586 116.076C122.226 119.19 118.854 123.606 121.578 127.476C124.302 131.346 128.718 131.37 131.178 134.748C133.638 138.126 130.104 141.816 127.38 147.528C124.656 153.24 129.432 156.582 133.458 157.878C137.484 159.174 137.796 154.734 142.338 147.204C146.88 139.674 140.13 126.804 138.054 122.004C135.978 117.204 137.544 114 137.544 114Z" fill="#263238" stroke="#263238" stroke-linecap="round" stroke-linejoin="round"/>
<path d="M133.71 123.162C133.71 123.162 129.306 123.582 128.256 125.262C127.206 126.942 129.936 127.146 129.936 127.146" stroke="white" stroke-linecap="round" stroke-linejoin="round"/>
<path d="M133.71 119.598C133.71 119.598 123.648 123.372 123.438 126.102C123.228 128.832 128.466 129.036 128.466 129.036" stroke="white" stroke-linecap="round" stroke-linejoin="round"/>
<path d="M137.28 147.492C137.28 147.492 131.946 154.356 128.958 156.558C125.97 158.76 125.154 161.754 126.708 163.314C128.262 164.874 127.548 165.012 137.022 165.792C146.496 166.572 151.56 164.754 154.674 161.772C157.788 158.79 159.342 156.318 159.342 153.852C159.342 151.386 148.44 145.548 144.678 145.548C140.916 145.548 137.28 147.492 137.28 147.492Z" fill="white" stroke="#263238" stroke-linecap="round" stroke-linejoin="round"/>
<path d="M138.06 153.204L133.128 159.306C133.128 159.306 135.204 160.86 135.594 160.212C135.984 159.564 137.802 156.192 137.802 156.192" stroke="#263238" stroke-linecap="round" stroke-linejoin="round"/>
<path d="M141.048 144.252C141.048 144.252 137.544 145.548 136.89 146.454C136.236 147.36 130.29 151.65 131.964 151.776C133.638 151.902 137.022 149.052 137.022 149.052C137.022 149.052 137.28 153.204 138.06 153.204C138.84 153.204 144.288 150.996 144.288 150.996C144.288 150.996 146.364 156.45 147.666 155.022C148.968 153.594 150.132 145.68 149.22 143.73C148.308 141.78 141.048 144.252 141.048 144.252Z" fill="#00B96D" stroke="#263238" stroke-linecap="round" stroke-linejoin="round"/>
<path d="M139.356 141V148.14C139.356 150.342 138.45 151.512 139.878 151.14C141.306 150.768 144.552 147.894 146.478 144.912C148.404 141.93 147.516 137.382 146.736 134.142C145.956 130.902 144.012 133.23 142.842 134.658C141.672 136.086 139.356 141 139.356 141Z" fill="white" stroke="#263238" stroke-linecap="round" stroke-linejoin="round"/>
<path d="M134.4 122.706L129.21 128.934C129.21 128.934 130.122 135.534 131.676 138.018C133.23 140.502 136.998 143.598 138.684 143.082C140.37 142.566 145.284 135.282 145.566 134.388C146.2 132.463 146.06 130.367 145.176 128.544C143.898 125.694 134.4 122.706 134.4 122.706Z" fill="white" stroke="#263238" stroke-linecap="round" stroke-linejoin="round"/>
<path d="M133.908 130.362C133.908 130.362 134.688 132.57 134.298 133.476C133.908 134.382 132.612 134.904 133.098 135.552C133.277 135.747 133.5 135.896 133.749 135.987C133.997 136.077 134.264 136.107 134.526 136.074" stroke="#263238" stroke-linecap="round" stroke-linejoin="round"/>
<path d="M134.298 138.15C134.298 138.15 137.154 138.672 137.67 136.98" stroke="#263238" stroke-linecap="round" stroke-linejoin="round"/>
<path d="M138.264 131.7C138.264 132.15 138.042 132.51 137.778 132.51C137.514 132.51 137.292 132.15 137.292 131.7C137.292 131.25 137.508 130.896 137.778 130.896C138.048 130.896 138.264 131.256 138.264 131.7Z" fill="#263238"/>
<path d="M133.8 132.33C133.8 132.78 133.584 133.14 133.314 133.14C133.044 133.14 132.828 132.78 132.828 132.33C132.828 131.88 133.044 131.526 133.314 131.526C133.584 131.526 133.8 131.886 133.8 132.33Z" fill="#263238"/>
<path d="M130.8 130.8C130.8 130.8 131.16 129.126 132.294 129.126C133.428 129.126 133.614 129.486 133.614 129.486" stroke="#263238" stroke-linecap="round" stroke-linejoin="round"/>
<path d="M135.534 129.042C135.622 128.586 135.882 128.181 136.262 127.913C136.641 127.645 137.109 127.533 137.568 127.602C139.242 127.842 139.302 128.802 139.302 128.802" stroke="#263238" stroke-linecap="round" stroke-linejoin="round"/>
<path d="M133.002 119.85C133.002 119.85 133.65 126.6 139.746 130.104C145.842 133.608 148.704 138.018 146.754 143.472C144.804 148.926 142.602 153.726 147.792 157.098C152.982 160.47 158.952 159.174 163.11 153.594C167.268 148.014 167.742 139.794 163.326 132.636C158.91 125.478 157.476 122.346 154.626 118.068C151.776 113.79 143.226 113.106 138.708 113.49C137.456 113.549 136.246 113.958 135.214 114.669C134.182 115.381 133.37 116.367 132.87 117.516" fill="#263238"/>
<path d="M133.002 119.85C133.002 119.85 133.65 126.6 139.746 130.104C145.842 133.608 148.704 138.018 146.754 143.472C144.804 148.926 142.602 153.726 147.792 157.098C152.982 160.47 158.952 159.174 163.11 153.594C167.268 148.014 167.742 139.794 163.326 132.636C158.91 125.478 157.476 122.346 154.626 118.068C151.776 113.79 143.226 113.106 138.708 113.49C137.456 113.549 136.246 113.958 135.214 114.669C134.182 115.381 133.37 116.367 132.87 117.516" stroke="#263238" stroke-linecap="round" stroke-linejoin="round"/>
<path d="M135.39 121.068C135.39 121.068 133.5 126.522 142.518 129.876C151.536 133.23 161.808 133.44 162.438 141.198" stroke="white" stroke-linecap="round" stroke-linejoin="round"/>
<path d="M149.514 154.626C149.738 155.111 150.07 155.538 150.486 155.874" stroke="white" stroke-linecap="round" stroke-linejoin="round"/>
<path d="M141.888 129.666C141.888 129.666 150.066 134.466 150.888 140.568C151.44 144.558 149.55 148.638 149.196 151.806" stroke="white" stroke-linecap="round" stroke-linejoin="round"/>
<path d="M136.2 116.712C133.308 119.232 133.716 123.162 133.716 123.162" stroke="white" stroke-linecap="round" stroke-linejoin="round"/>
<path d="M138.954 115.2C138.504 115.344 138.067 115.525 137.646 115.74" stroke="white" stroke-linecap="round" stroke-linejoin="round"/>
</g>
<path d="M140.418 164.31C154.319 164.31 165.588 153.041 165.588 139.14C165.588 125.239 154.319 113.97 140.418 113.97C126.517 113.97 115.248 125.239 115.248 139.14C115.248 153.041 126.517 164.31 140.418 164.31Z" stroke="#263238" stroke-miterlimit="10"/>
<path d="M160.38 173.604H120.45C118.276 173.604 116.514 175.366 116.514 177.54V180.624C116.514 182.798 118.276 184.56 120.45 184.56H160.38C162.554 184.56 164.316 182.798 164.316 180.624V177.54C164.316 175.366 162.554 173.604 160.38 173.604Z" fill="white" stroke="#263238" stroke-linecap="round" stroke-linejoin="round"/>
<path d="M160.38 191.784H120.45C118.276 191.784 116.514 193.546 116.514 195.72V198.804C116.514 200.978 118.276 202.74 120.45 202.74H160.38C162.554 202.74 164.316 200.978 164.316 198.804V195.72C164.316 193.546 162.554 191.784 160.38 191.784Z" fill="white" stroke="#263238" stroke-linecap="round" stroke-linejoin="round"/>
<path d="M160.38 209.964H120.45C118.276 209.964 116.514 211.726 116.514 213.9V216.984C116.514 219.158 118.276 220.92 120.45 220.92H160.38C162.554 220.92 164.316 219.158 164.316 216.984V213.9C164.316 211.726 162.554 209.964 160.38 209.964Z" fill="#263238"/>
<path d="M152.55 107.652C150.426 107.652 148.388 106.808 146.886 105.306C145.384 103.804 144.54 101.766 144.54 99.642C144.54 97.5176 145.384 95.4802 146.886 93.9781C148.388 92.4759 150.426 91.632 152.55 91.632C154.673 91.6336 156.709 92.4782 158.21 93.9802C159.711 95.4822 160.554 97.5187 160.554 99.642C160.554 101.765 159.711 103.802 158.21 105.304C156.709 106.806 154.673 107.65 152.55 107.652Z" fill="#263238"/>
<path d="M151.278 104.484H153.228V99.6H154.59L154.734 97.968H153.228V97.038C153.228 96.648 153.306 96.498 153.678 96.498H154.734V94.8H153.384C151.932 94.8 151.278 95.442 151.278 96.666V97.968H150.264V99.6H151.278V104.484Z" fill="white"/>
<path d="M127.998 107.652C125.876 107.649 123.841 106.804 122.342 105.302C120.842 103.8 120 101.764 120 99.642C120 97.5176 120.844 95.4802 122.346 93.9781C123.848 92.4759 125.886 91.632 128.01 91.632C129.062 91.632 130.103 91.8392 131.075 92.2417C132.047 92.6443 132.93 93.2343 133.674 93.9781C134.418 94.7219 135.008 95.6049 135.41 96.5767C135.813 97.5485 136.02 98.5901 136.02 99.642C136.02 100.695 135.812 101.737 135.409 102.71C135.006 103.683 134.415 104.566 133.67 105.31C132.925 106.054 132.04 106.644 131.067 107.046C130.094 107.448 129.051 107.654 127.998 107.652Z" fill="#263238"/>
<path d="M123.732 102.324C124.501 102.821 125.391 103.096 126.306 103.119C127.221 103.142 128.124 102.913 128.917 102.455C129.71 101.998 130.361 101.331 130.799 100.528C131.237 99.7246 131.445 98.816 131.4 97.902C131.743 97.6539 132.04 97.3472 132.276 96.996C131.956 97.1375 131.616 97.2306 131.268 97.272C131.637 97.0543 131.912 96.7082 132.042 96.3C131.699 96.5048 131.324 96.649 130.932 96.726C130.766 96.553 130.566 96.4151 130.346 96.3203C130.125 96.2255 129.888 96.1758 129.648 96.174C129.385 96.1744 129.125 96.2342 128.887 96.3491C128.65 96.4639 128.442 96.6307 128.278 96.8371C128.114 97.0436 127.999 97.2843 127.941 97.5414C127.884 97.7985 127.884 98.0653 127.944 98.322C127.252 98.2894 126.574 98.1124 125.954 97.8024C125.334 97.4924 124.786 97.0563 124.344 96.522C124.121 96.9069 124.053 97.3623 124.153 97.7957C124.253 98.2292 124.515 98.6082 124.884 98.856C124.607 98.8477 124.335 98.7737 124.092 98.64C124.088 99.0471 124.226 99.4429 124.482 99.7594C124.739 100.076 125.097 100.293 125.496 100.374C125.238 100.447 124.967 100.458 124.704 100.404C124.819 100.749 125.038 101.05 125.331 101.265C125.625 101.481 125.978 101.599 126.342 101.604C125.976 101.89 125.557 102.1 125.109 102.224C124.661 102.347 124.193 102.381 123.732 102.324Z" fill="white"/>
<path d="M143.232 239.922C143.232 239.526 143.114 239.138 142.894 238.809C142.674 238.479 142.361 238.222 141.995 238.071C141.629 237.919 141.226 237.879 140.837 237.957C140.448 238.034 140.091 238.225 139.811 238.505C139.531 238.785 139.34 239.142 139.263 239.531C139.185 239.92 139.225 240.323 139.377 240.689C139.528 241.055 139.785 241.368 140.115 241.588C140.444 241.808 140.832 241.926 141.228 241.926C141.76 241.926 142.269 241.715 142.645 241.339C143.021 240.963 143.232 240.453 143.232 239.922Z" fill="white"/>
</svg>
