<svg width="300" height="300" viewBox="0 0 300 300" fill="none" xmlns="http://www.w3.org/2000/svg">
<path d="M300 229.44H0V229.59H300V229.44Z" fill="#EBEBEB"/>
<path d="M269.94 239.094H250.068V239.244H269.94V239.094Z" fill="#EBEBEB"/>
<path d="M198.732 240.726H193.518V240.876H198.732V240.726Z" fill="#EBEBEB"/>
<path d="M249.468 233.526H237.954V233.676H249.468V233.526Z" fill="#EBEBEB"/>
<path d="M57.39 234.534H31.476V234.684H57.39V234.534Z" fill="#EBEBEB"/>
<path d="M66.534 234.534H62.736V234.684H66.534V234.534Z" fill="#EBEBEB"/>
<path d="M135.09 237.066H78.882V237.216H135.09V237.066Z" fill="#EBEBEB"/>
<path d="M142.2 202.68H26.346C25.4384 202.678 24.5686 202.317 23.9274 201.674C23.2862 201.032 22.926 200.162 22.926 199.254V36.396C22.9339 35.4936 23.2975 34.6308 23.9379 33.9949C24.5782 33.3591 25.4436 33.0015 26.346 33H142.2C143.109 33 143.98 33.361 144.623 34.0035C145.265 34.646 145.626 35.5174 145.626 36.426V199.254C145.626 200.163 145.265 201.034 144.623 201.677C143.98 202.319 143.109 202.68 142.2 202.68ZM26.346 33.12C25.4782 33.1216 24.6465 33.4674 24.0334 34.0816C23.4204 34.6958 23.076 35.5282 23.076 36.396V199.254C23.076 200.122 23.4204 200.954 24.0334 201.568C24.6465 202.183 25.4782 202.528 26.346 202.53H142.2C143.068 202.528 143.901 202.183 144.515 201.569C145.129 200.955 145.474 200.122 145.476 199.254V36.396C145.474 35.5276 145.129 34.6953 144.515 34.0813C143.901 33.4672 143.068 33.1216 142.2 33.12H26.346Z" fill="#EBEBEB"/>
<path d="M271.986 202.68H156.126C155.218 202.678 154.347 202.317 153.705 201.675C153.063 201.033 152.702 200.162 152.7 199.254V36.396C152.709 35.4931 153.074 34.6302 153.716 33.9946C154.357 33.3589 155.223 33.0015 156.126 33H271.986C272.887 33.0031 273.751 33.3613 274.39 33.997C275.029 34.6327 275.392 35.4947 275.4 36.396V199.254C275.4 200.161 275.041 201.03 274.401 201.672C273.761 202.314 272.892 202.677 271.986 202.68ZM156.126 33.12C155.258 33.1216 154.425 33.4672 153.811 34.0813C153.197 34.6953 152.852 35.5276 152.85 36.396V199.254C152.852 200.122 153.197 200.955 153.811 201.569C154.425 202.183 155.258 202.528 156.126 202.53H271.986C272.854 202.528 273.687 202.183 274.301 201.569C274.915 200.955 275.26 200.122 275.262 199.254V36.396C275.26 35.5276 274.915 34.6953 274.301 34.0813C273.687 33.4672 272.854 33.1216 271.986 33.12H156.126Z" fill="#EBEBEB"/>
<path d="M145.404 104.328H60.2159V229.23H145.404V104.328Z" fill="#F0F0F0"/>
<path d="M142.392 108.258H63.222V131.328H142.392V108.258Z" fill="#E0E0E0"/>
<path d="M67.722 111.99H63.222V131.322H67.722V111.99Z" fill="#EBEBEB"/>
<path d="M89.472 111.99H84.972V131.322H89.472V111.99Z" fill="#EBEBEB"/>
<path d="M114.157 111.504L109.723 112.269L113.006 131.32L117.441 130.555L114.157 111.504Z" fill="#EBEBEB"/>
<path d="M73.296 114.54H68.796V131.328H73.296V114.54Z" fill="#EBEBEB"/>
<path d="M83.634 114.54H79.134V131.328H83.634V114.54Z" fill="#EBEBEB"/>
<path d="M109.728 114.54H105.228V131.328H109.728V114.54Z" fill="#EBEBEB"/>
<path d="M95.3828 113.957L90.99 114.934L94.6322 131.322L99.025 130.346L95.3828 113.957Z" fill="#EBEBEB"/>
<path d="M77.184 111.03H74.934V131.322H77.184V111.03Z" fill="#EBEBEB"/>
<path d="M103.932 111.03H101.682V131.322H103.932V111.03Z" fill="#EBEBEB"/>
<path d="M63.2279 158.052H142.398V134.982H63.2279V158.052Z" fill="#E0E0E0"/>
<path d="M137.892 158.046H142.392V138.714H137.892V158.046Z" fill="#EBEBEB"/>
<path d="M116.148 158.046H120.648V138.714H116.148V158.046Z" fill="#EBEBEB"/>
<path d="M88.1801 157.278L92.6147 158.042L95.8986 138.991L91.464 138.227L88.1801 157.278Z" fill="#EBEBEB"/>
<path d="M132.318 158.052H136.818V141.264H132.318V158.052Z" fill="#EBEBEB"/>
<path d="M121.986 158.052H126.486V141.264H121.986V158.052Z" fill="#EBEBEB"/>
<path d="M95.8921 158.052H100.392V141.264H95.8921V158.052Z" fill="#EBEBEB"/>
<path d="M106.61 157.071L111.002 158.047L114.645 141.659L110.252 140.683L106.61 157.071Z" fill="#EBEBEB"/>
<path d="M128.43 158.046H130.68V137.754H128.43V158.046Z" fill="#EBEBEB"/>
<path d="M101.688 158.046H103.938V137.754H101.688V158.046Z" fill="#EBEBEB"/>
<path d="M67.722 138.714H63.222V158.046H67.722V138.714Z" fill="#EBEBEB"/>
<path d="M73.296 141.258H68.796V158.046H73.296V141.258Z" fill="#EBEBEB"/>
<path d="M83.634 141.258H79.134V158.046H83.634V141.258Z" fill="#EBEBEB"/>
<path d="M77.184 137.754H74.934V158.046H77.184V137.754Z" fill="#EBEBEB"/>
<path d="M142.392 161.7H63.222V184.77H142.392V161.7Z" fill="#E0E0E0"/>
<path d="M113.166 165.432H108.666V184.764H113.166V165.432Z" fill="#EBEBEB"/>
<path d="M137.855 164.945L133.42 165.709L136.704 184.76L141.139 183.996L137.855 164.945Z" fill="#EBEBEB"/>
<path d="M96.99 167.982H92.49V184.77H96.99V167.982Z" fill="#EBEBEB"/>
<path d="M107.328 167.982H102.828V184.77H107.328V167.982Z" fill="#EBEBEB"/>
<path d="M133.422 167.982H128.922V184.77H133.422V167.982Z" fill="#EBEBEB"/>
<path d="M119.079 167.4L114.686 168.376L118.328 184.765L122.721 183.788L119.079 167.4Z" fill="#EBEBEB"/>
<path d="M100.878 164.472H98.6279V184.764H100.878V164.472Z" fill="#EBEBEB"/>
<path d="M127.626 164.472H125.376V184.764H127.626V164.472Z" fill="#EBEBEB"/>
<path d="M86.1127 164.95L81.6781 165.714L84.9619 184.765L89.3965 184.001L86.1127 164.95Z" fill="#EBEBEB"/>
<path d="M81.678 167.982H77.178V184.77H81.678V167.982Z" fill="#EBEBEB"/>
<path d="M67.337 167.4L62.9442 168.376L66.5864 184.765L70.9792 183.788L67.337 167.4Z" fill="#EBEBEB"/>
<path d="M75.8879 164.472H73.6379V184.764H75.8879V164.472Z" fill="#EBEBEB"/>
<path d="M45.5159 229.554H60.2159L60.2159 104.328H45.5159L45.5159 229.554Z" fill="#E0E0E0"/>
<path d="M195.264 226.284H182.778L189.342 172.8C189.5 171.683 190.049 170.657 190.891 169.907C191.734 169.156 192.816 168.729 193.944 168.702H248.4L240.414 226.26L195.264 226.284Z" fill="#F5F5F5"/>
<path d="M234.864 226.284H247.35L253.92 172.8C254 172.286 253.966 171.76 253.821 171.261C253.676 170.761 253.422 170.3 253.079 169.909C252.736 169.518 252.31 169.207 251.834 168.998C251.357 168.79 250.84 168.689 250.32 168.702H246.03C244.904 168.736 243.826 169.166 242.985 169.915C242.143 170.664 241.592 171.685 241.428 172.8L234.864 226.284Z" fill="#F0F0F0"/>
<path d="M230.268 226.2L232.53 200.34C232.578 199.779 232.817 199.251 233.206 198.845C233.596 198.439 234.114 198.179 234.672 198.108L235.602 197.988C236.353 197.894 237.048 197.545 237.572 196.998C238.095 196.452 238.414 195.742 238.476 194.988L238.89 190.272C238.931 189.815 238.876 189.354 238.729 188.919C238.582 188.484 238.346 188.085 238.036 187.746C237.726 187.408 237.349 187.137 236.929 186.952C236.509 186.767 236.055 186.672 235.596 186.672H256.464C256.923 186.672 257.377 186.767 257.797 186.952C258.217 187.137 258.594 187.408 258.904 187.746C259.214 188.085 259.45 188.484 259.597 188.919C259.744 189.354 259.799 189.815 259.758 190.272L259.344 194.988C259.282 195.742 258.963 196.452 258.44 196.998C257.916 197.545 257.221 197.894 256.47 197.988L255.54 198.108C254.982 198.18 254.465 198.44 254.076 198.846C253.686 199.252 253.447 199.779 253.398 200.34L251.136 226.2C251.055 227.109 250.637 227.954 249.964 228.571C249.292 229.187 248.412 229.529 247.5 229.53H226.632C227.544 229.529 228.424 229.187 229.096 228.571C229.769 227.954 230.187 227.109 230.268 226.2Z" fill="#E6E6E6"/>
<path d="M172.836 193.89C172.671 191.927 171.774 190.098 170.324 188.764C168.874 187.431 166.976 186.691 165.006 186.69H183.174C185.139 186.698 187.029 187.442 188.473 188.774C189.917 190.107 190.809 191.932 190.974 193.89L192.774 214.386H174.63L172.836 193.89Z" fill="#E6E6E6"/>
<path d="M156.936 186.714H165C166.97 186.715 168.868 187.455 170.318 188.788C171.768 190.122 172.665 191.951 172.83 193.914L174.63 214.41H217.902L219.702 193.914C219.866 191.956 220.757 190.13 222.201 188.797C223.645 187.464 225.537 186.721 227.502 186.714H235.572C236.031 186.714 236.485 186.809 236.905 186.994C237.325 187.179 237.702 187.45 238.012 187.788C238.322 188.127 238.558 188.526 238.705 188.961C238.852 189.396 238.907 189.857 238.866 190.314L238.452 195.03C238.39 195.784 238.071 196.494 237.548 197.04C237.024 197.587 236.329 197.936 235.578 198.03L234.648 198.15C234.089 198.221 233.572 198.481 233.182 198.887C232.792 199.293 232.554 199.821 232.506 200.382L230.268 226.2C230.187 227.109 229.769 227.954 229.096 228.571C228.423 229.187 227.544 229.529 226.632 229.53H165.9C164.988 229.529 164.108 229.187 163.436 228.571C162.763 227.954 162.345 227.109 162.264 226.2L160.002 200.34C159.952 199.78 159.713 199.253 159.323 198.848C158.934 198.442 158.418 198.181 157.86 198.108L156.93 197.988C156.179 197.893 155.483 197.544 154.959 196.998C154.435 196.452 154.114 195.742 154.05 194.988L153.642 190.272C153.607 189.818 153.667 189.362 153.816 188.932C153.966 188.502 154.203 188.108 154.512 187.774C154.822 187.44 155.196 187.173 155.614 186.991C156.031 186.809 156.481 186.714 156.936 186.714Z" fill="#F0F0F0"/>
<path d="M61.296 98.088C61.296 98.088 60.63 93.702 63.828 90.888C67.026 88.074 66.744 86.406 65.826 86.19C64.908 85.974 64.074 88.782 62.67 89.556C62.67 89.556 62.622 85.548 64.05 84.078C65.478 82.608 66.228 78.798 64.866 78.732C63.504 78.666 63.372 80.988 63.066 82.638C62.76 84.288 61.266 86.604 61.266 86.604C61.266 86.604 60.972 83.004 60.066 81.546C59.16 80.088 61.602 76.698 60.666 75.228C59.73 73.758 58.032 76.56 58.17 79.722C58.308 82.884 60.42 86.256 59.928 89.556C59.928 89.556 58.998 87.234 58.164 87.024C57.33 86.814 56.484 85.284 55.926 84.714C55.368 84.144 54.66 86.112 55.926 87.936C57.192 89.76 60.42 94.65 59.928 98.598L61.296 98.088Z" fill="#E6E6E6"/>
<path d="M63.204 96.09L64.254 102.66C64.3294 103.137 64.3005 103.625 64.1694 104.09C64.0383 104.554 63.8079 104.985 63.4943 105.352C63.1807 105.72 62.7912 106.015 62.3526 106.217C61.9141 106.419 61.4369 106.524 60.954 106.524H59.838C59.355 106.524 58.8779 106.419 58.4393 106.217C58.0008 106.015 57.6113 105.72 57.2976 105.352C56.984 104.985 56.7537 104.554 56.6225 104.09C56.4914 103.625 56.4625 103.137 56.538 102.66L57.6 96.09H63.204Z" fill="#E6E6E6"/>
<path d="M126.03 105.24H129.288V91.23H126.03V105.24Z" fill="#EBEBEB"/>
<path d="M110.274 105.24H113.532V91.23H110.274V105.24Z" fill="#EBEBEB"/>
<path d="M90.0086 104.683L93.2192 105.237L95.5991 91.4302L92.3884 90.8767L90.0086 104.683Z" fill="#EBEBEB"/>
<path d="M121.992 105.234H125.25V93.072H121.992V105.234Z" fill="#EBEBEB"/>
<path d="M114.504 105.234H117.762V93.072H114.504V105.234Z" fill="#EBEBEB"/>
<path d="M95.5921 105.234H98.8501V93.072H95.5921V105.234Z" fill="#EBEBEB"/>
<path d="M103.362 104.528L106.542 105.235L109.181 93.363L106.001 92.6562L103.362 104.528Z" fill="#EBEBEB"/>
<path d="M119.172 105.24H120.804V90.534H119.172V105.24Z" fill="#EBEBEB"/>
<path d="M99.786 105.24H101.418V90.534H99.786V105.24Z" fill="#EBEBEB"/>
<path d="M88.17 94.116H72.288V105.078H88.17V94.116Z" fill="#EBEBEB"/>
<path d="M142.638 98.604H129.336V106.788H142.638V98.604Z" fill="#EBEBEB"/>
<path d="M139.53 91.41H132.876V99.594H139.53V91.41Z" fill="#EBEBEB"/>
<path d="M250.686 80.58H234.864V146.508H250.686V80.58Z" fill="#E0E0E0"/>
<path d="M189.816 146.688H248.988V80.586L189.816 80.586V146.688Z" fill="#E0E0E0"/>
<path d="M187.908 146.688H249.3V80.586L187.908 80.586V146.688Z" fill="#F0F0F0"/>
<path d="M190.536 143.646H246.78V82.686H190.536V143.646Z" fill="white"/>
<path d="M190.53 143.646H191.574V82.686H190.53V143.646Z" fill="#E0E0E0"/>
<path d="M191.406 126.528V128.172H246.93V126.528H191.406Z" fill="#E0E0E0"/>
<path d="M190.53 126.522H247.656V123.762H190.53V126.522Z" fill="#F0F0F0"/>
<path d="M150 256.536C214.249 256.536 266.334 253.495 266.334 249.744C266.334 245.993 214.249 242.952 150 242.952C85.7505 242.952 33.666 245.993 33.666 249.744C33.666 253.495 85.7505 256.536 150 256.536Z" fill="#F5F5F5"/>
<path d="M193.17 91.692H85.824C83.3984 91.692 81.432 93.6584 81.432 96.084V222.48C81.432 224.906 83.3984 226.872 85.824 226.872H193.17C195.596 226.872 197.562 224.906 197.562 222.48V96.084C197.562 93.6584 195.596 91.692 193.17 91.692Z" fill="#00B96D"/>
<path opacity="0.6" d="M193.17 91.692H85.824C83.3984 91.692 81.432 93.6584 81.432 96.084V222.48C81.432 224.906 83.3984 226.872 85.824 226.872H193.17C195.596 226.872 197.562 224.906 197.562 222.48V96.084C197.562 93.6584 195.596 91.692 193.17 91.692Z" fill="white"/>
<path d="M178.752 153.69H100.248V167.13H178.752V153.69Z" fill="white"/>
<g opacity="0.4">
<path d="M107.268 161.718V162.072H104.544V158.22H107.184V158.568H104.952V159.942H106.944V160.284H104.952V161.718H107.268Z" fill="#263238"/>
<path d="M107.814 160.41H109.26V160.746H107.814V160.41Z" fill="#263238"/>
<path d="M114.906 160.392V162.072H114.516V160.428C114.516 159.828 114.21 159.504 113.688 159.504C113.553 159.498 113.417 159.521 113.292 159.572C113.167 159.624 113.054 159.702 112.962 159.801C112.87 159.901 112.801 160.019 112.759 160.148C112.718 160.277 112.705 160.414 112.722 160.548V162.072H112.326V160.428C112.326 159.828 112.02 159.504 111.492 159.504C111.357 159.498 111.221 159.521 111.096 159.572C110.971 159.624 110.858 159.702 110.766 159.801C110.674 159.901 110.605 160.019 110.563 160.148C110.522 160.277 110.509 160.414 110.526 160.548V162.072H110.13V159.174H110.508V159.702C110.621 159.525 110.779 159.381 110.965 159.284C111.152 159.187 111.36 159.141 111.57 159.15C111.782 159.132 111.994 159.18 112.178 159.287C112.362 159.395 112.508 159.556 112.596 159.75C112.716 159.557 112.885 159.399 113.087 159.293C113.288 159.188 113.515 159.138 113.742 159.15C113.905 159.138 114.068 159.162 114.221 159.221C114.373 159.28 114.51 159.373 114.621 159.492C114.733 159.611 114.817 159.754 114.866 159.91C114.915 160.065 114.929 160.23 114.906 160.392Z" fill="#263238"/>
<path d="M118.158 160.272V162.072H117.78V161.616C117.673 161.778 117.523 161.909 117.348 161.993C117.173 162.078 116.978 162.113 116.784 162.096C116.13 162.096 115.728 161.754 115.728 161.256C115.728 160.758 116.016 160.434 116.844 160.434H117.762V160.26C117.762 159.762 117.486 159.492 116.946 159.492C116.594 159.488 116.251 159.609 115.98 159.834L115.806 159.546C116.145 159.273 116.571 159.133 117.006 159.15C117.159 159.131 117.315 159.147 117.461 159.197C117.607 159.246 117.74 159.327 117.851 159.435C117.961 159.543 118.046 159.674 118.099 159.819C118.153 159.963 118.173 160.118 118.158 160.272ZM117.762 161.202V160.728H116.856C116.298 160.728 116.112 160.944 116.112 161.244C116.112 161.544 116.382 161.79 116.844 161.79C117.04 161.803 117.235 161.753 117.4 161.647C117.565 161.541 117.692 161.385 117.762 161.202Z" fill="#263238"/>
<path d="M119.13 158.262C119.131 158.225 119.139 158.188 119.154 158.155C119.169 158.121 119.19 158.09 119.217 158.064C119.243 158.039 119.275 158.019 119.31 158.005C119.344 157.992 119.381 157.985 119.418 157.986C119.454 157.985 119.49 157.992 119.524 158.005C119.558 158.018 119.589 158.037 119.615 158.063C119.641 158.088 119.662 158.118 119.677 158.151C119.691 158.184 119.699 158.22 119.7 158.256C119.701 158.294 119.694 158.331 119.68 158.366C119.666 158.401 119.646 158.432 119.619 158.459C119.593 158.486 119.562 158.507 119.527 158.522C119.493 158.537 119.455 158.544 119.418 158.544C119.38 158.545 119.343 158.538 119.308 158.524C119.273 158.51 119.241 158.49 119.215 158.464C119.188 158.437 119.166 158.406 119.152 158.371C119.137 158.337 119.13 158.3 119.13 158.262ZM119.22 159.174H119.61V162.072H119.22V159.174Z" fill="#263238"/>
<path d="M120.696 157.986H121.086V162.072H120.696V157.986Z" fill="#263238"/>
</g>
<path d="M178.752 172.05H100.248V185.49H178.752V172.05Z" fill="white"/>
<g opacity="0.4">
<path d="M107.556 177.918C107.556 178.74 106.956 179.238 105.984 179.238H104.952V180.438H104.544V176.586H105.984C106.962 176.598 107.556 177.096 107.556 177.918ZM107.148 177.918C107.148 177.318 106.746 176.952 105.948 176.952H104.928V178.878H105.948C106.746 178.878 107.148 178.524 107.148 177.918Z" fill="#263238"/>
<path d="M110.514 178.656V180.456H110.136V180C110.029 180.162 109.879 180.293 109.704 180.377C109.529 180.462 109.334 180.497 109.14 180.48C108.486 180.48 108.084 180.138 108.084 179.634C108.084 179.13 108.372 178.8 109.2 178.8H110.118V178.62C110.118 178.128 109.836 177.858 109.296 177.858C108.945 177.853 108.605 177.975 108.336 178.2L108.156 177.906C108.498 177.639 108.923 177.501 109.356 177.516C109.511 177.496 109.669 177.511 109.817 177.561C109.966 177.611 110.101 177.694 110.213 177.804C110.324 177.914 110.409 178.048 110.461 178.195C110.514 178.343 110.532 178.5 110.514 178.656ZM110.124 179.58V179.106H109.2C108.642 179.106 108.462 179.328 108.462 179.628C108.462 179.928 108.726 180.168 109.194 180.168C109.392 180.183 109.589 180.133 109.756 180.028C109.923 179.922 110.052 179.765 110.124 179.58Z" fill="#263238"/>
<path d="M111.174 180.12L111.348 179.814C111.65 180.025 112.011 180.138 112.38 180.138C112.926 180.138 113.154 179.952 113.154 179.664C113.154 178.908 111.276 179.502 111.276 178.362C111.276 177.888 111.684 177.534 112.422 177.534C112.782 177.531 113.136 177.624 113.448 177.804L113.274 178.116C113.021 177.949 112.724 177.864 112.422 177.87C111.9 177.87 111.666 178.074 111.666 178.35C111.666 179.13 113.544 178.542 113.544 179.652C113.544 180.156 113.106 180.48 112.344 180.48C111.925 180.491 111.514 180.364 111.174 180.12Z" fill="#263238"/>
<path d="M113.862 180.12L114.042 179.814C114.341 180.028 114.7 180.141 115.068 180.138C115.62 180.138 115.842 179.952 115.842 179.664C115.842 178.908 113.97 179.502 113.97 178.362C113.97 177.888 114.378 177.534 115.11 177.534C115.47 177.529 115.825 177.623 116.136 177.804L115.968 178.116C115.713 177.95 115.414 177.864 115.11 177.87C114.588 177.87 114.36 178.074 114.36 178.35C114.36 179.13 116.238 178.542 116.238 179.652C116.238 180.156 115.794 180.48 115.038 180.48C114.617 180.49 114.205 180.364 113.862 180.12Z" fill="#263238"/>
<path d="M121.146 177.558L120.054 180.45H119.688L118.8 178.08L117.888 180.45H117.522L116.4 177.558H116.772L117.684 180.018L118.614 177.558H118.95L119.874 180.018L120.792 177.558H121.146Z" fill="#263238"/>
<path d="M121.362 179.004C121.362 178.712 121.448 178.427 121.611 178.184C121.773 177.941 122.003 177.752 122.273 177.64C122.543 177.529 122.84 177.499 123.126 177.556C123.412 177.613 123.675 177.754 123.882 177.96C124.088 178.167 124.229 178.43 124.286 178.716C124.343 179.002 124.313 179.299 124.202 179.569C124.09 179.839 123.901 180.069 123.658 180.231C123.415 180.393 123.13 180.48 122.838 180.48C122.642 180.487 122.447 180.453 122.265 180.381C122.083 180.309 121.918 180.201 121.779 180.063C121.641 179.924 121.532 179.759 121.461 179.577C121.389 179.395 121.355 179.2 121.362 179.004ZM123.912 179.004C123.903 178.792 123.831 178.588 123.707 178.417C123.582 178.246 123.41 178.115 123.212 178.041C123.013 177.966 122.798 177.952 122.591 177.999C122.385 178.047 122.197 178.154 122.051 178.307C121.905 178.461 121.807 178.654 121.77 178.862C121.733 179.07 121.757 179.285 121.841 179.48C121.925 179.674 122.064 179.84 122.242 179.956C122.419 180.072 122.626 180.133 122.838 180.132C122.984 180.135 123.13 180.107 123.265 180.051C123.4 179.994 123.522 179.91 123.623 179.804C123.724 179.698 123.802 179.572 123.852 179.435C123.901 179.297 123.922 179.15 123.912 179.004Z" fill="#263238"/>
<path d="M126.564 177.534V177.912H126.468C126.331 177.905 126.194 177.929 126.067 177.982C125.94 178.034 125.826 178.114 125.733 178.215C125.64 178.316 125.571 178.437 125.53 178.568C125.489 178.699 125.477 178.838 125.496 178.974V180.45H125.106V177.558H125.478V178.122C125.579 177.926 125.737 177.766 125.93 177.661C126.124 177.556 126.345 177.512 126.564 177.534Z" fill="#263238"/>
<path d="M129.882 176.4V180.48H129.51V179.91C129.393 180.1 129.229 180.255 129.033 180.36C128.837 180.466 128.616 180.517 128.394 180.51C128.019 180.486 127.668 180.321 127.412 180.047C127.155 179.773 127.012 179.412 127.012 179.037C127.012 178.662 127.155 178.301 127.412 178.027C127.668 177.754 128.019 177.588 128.394 177.564C128.613 177.559 128.83 177.612 129.023 177.717C129.216 177.823 129.377 177.977 129.492 178.164V176.4H129.882ZM129.498 179.034C129.488 178.822 129.417 178.618 129.293 178.447C129.168 178.276 128.996 178.145 128.798 178.071C128.599 177.996 128.384 177.982 128.177 178.029C127.971 178.077 127.783 178.184 127.637 178.337C127.491 178.491 127.393 178.684 127.356 178.892C127.319 179.101 127.343 179.315 127.427 179.51C127.511 179.704 127.65 179.87 127.828 179.986C128.005 180.102 128.212 180.163 128.424 180.162C128.573 180.165 128.721 180.137 128.859 180.079C128.996 180.02 129.12 179.934 129.221 179.824C129.323 179.715 129.4 179.585 129.447 179.444C129.495 179.302 129.512 179.153 129.498 179.004V179.034Z" fill="#263238"/>
</g>
<path opacity="0.2" d="M178.752 199.2H100.248V212.64H178.752V199.2Z" fill="black"/>
<g opacity="0.5">
<path d="M119.34 193.026H118.056L117.78 193.626H117.528L118.578 191.328H118.818L119.868 193.626H119.616L119.34 193.026ZM119.25 192.828L118.698 191.592L118.146 192.828H119.25Z" fill="black"/>
<path d="M120.204 191.202H120.438V193.638H120.204V191.202Z" fill="black"/>
<path d="M121.962 191.898V192.126H121.902C121.818 192.119 121.734 192.131 121.655 192.161C121.577 192.191 121.506 192.238 121.448 192.299C121.391 192.36 121.348 192.434 121.322 192.514C121.297 192.594 121.29 192.679 121.302 192.762V193.644H121.068V191.916H121.296V192.252C121.356 192.131 121.453 192.032 121.572 191.968C121.692 191.905 121.828 191.88 121.962 191.898Z" fill="black"/>
<path d="M123.87 192.846H122.4C122.405 192.93 122.426 193.012 122.463 193.088C122.499 193.164 122.551 193.232 122.614 193.288C122.677 193.344 122.75 193.386 122.83 193.413C122.91 193.441 122.994 193.452 123.078 193.446C123.178 193.449 123.277 193.431 123.369 193.393C123.461 193.355 123.544 193.297 123.612 193.224L123.738 193.374C123.614 193.504 123.454 193.595 123.279 193.635C123.104 193.674 122.92 193.661 122.752 193.597C122.584 193.533 122.439 193.421 122.335 193.274C122.231 193.128 122.172 192.954 122.166 192.774C122.16 192.66 122.178 192.546 122.218 192.439C122.258 192.332 122.32 192.235 122.399 192.153C122.478 192.07 122.574 192.005 122.679 191.962C122.785 191.918 122.898 191.896 123.012 191.898C123.126 191.895 123.24 191.916 123.345 191.96C123.451 192.003 123.546 192.068 123.625 192.151C123.704 192.233 123.765 192.331 123.804 192.439C123.843 192.546 123.86 192.66 123.852 192.774C123.852 192.774 123.87 192.822 123.87 192.846ZM122.424 192.672H123.624C123.624 192.513 123.561 192.36 123.448 192.248C123.336 192.135 123.183 192.072 123.024 192.072C122.865 192.072 122.712 192.135 122.6 192.248C122.487 192.36 122.424 192.513 122.424 192.672Z" fill="black"/>
<path d="M125.604 192.6V193.668H125.4V193.398C125.336 193.497 125.247 193.576 125.141 193.627C125.035 193.678 124.917 193.698 124.8 193.686C124.41 193.686 124.2 193.482 124.2 193.182C124.2 192.882 124.368 192.69 124.866 192.69H125.4V192.588C125.4 192.294 125.232 192.132 124.908 192.132C124.69 192.124 124.476 192.197 124.308 192.336L124.206 192.162C124.405 192.003 124.654 191.92 124.908 191.928C125.001 191.912 125.096 191.918 125.186 191.946C125.276 191.974 125.358 192.022 125.426 192.088C125.494 192.153 125.545 192.234 125.576 192.323C125.607 192.412 125.617 192.507 125.604 192.6ZM125.376 193.152V192.864H124.83C124.494 192.864 124.386 192.996 124.386 193.176C124.386 193.356 124.548 193.5 124.824 193.5C124.948 193.509 125.072 193.478 125.176 193.409C125.281 193.341 125.359 193.24 125.4 193.122L125.376 193.152Z" fill="black"/>
<path d="M127.8 191.202V193.638H127.578V193.296C127.51 193.411 127.412 193.505 127.295 193.568C127.178 193.631 127.045 193.662 126.912 193.656C126.692 193.638 126.486 193.537 126.336 193.374C126.186 193.212 126.103 192.998 126.103 192.777C126.103 192.556 126.186 192.342 126.336 192.18C126.486 192.017 126.692 191.916 126.912 191.898C127.042 191.894 127.171 191.924 127.286 191.984C127.402 192.044 127.5 192.132 127.572 192.24V191.202H127.8ZM127.572 192.774C127.566 192.648 127.524 192.527 127.45 192.426C127.376 192.324 127.273 192.247 127.156 192.203C127.038 192.159 126.91 192.15 126.787 192.178C126.665 192.206 126.553 192.27 126.467 192.361C126.38 192.451 126.322 192.566 126.299 192.689C126.277 192.813 126.291 192.941 126.34 193.056C126.39 193.172 126.472 193.27 126.577 193.34C126.682 193.409 126.804 193.446 126.93 193.446C127.019 193.451 127.109 193.438 127.193 193.406C127.276 193.374 127.352 193.324 127.415 193.261C127.478 193.197 127.527 193.121 127.558 193.037C127.589 192.953 127.602 192.863 127.596 192.774H127.572Z" fill="black"/>
<path d="M129.93 191.91L129.066 193.848C128.922 194.184 128.736 194.292 128.466 194.292C128.311 194.296 128.161 194.24 128.046 194.136L128.154 193.962C128.238 194.046 128.353 194.094 128.472 194.094C128.628 194.094 128.73 194.022 128.832 193.8L128.904 193.638L128.13 191.91H128.4L129.054 193.38L129.702 191.91H129.93Z" fill="black"/>
<path d="M132.426 192.6V193.668H132.204V193.398C132.14 193.497 132.051 193.576 131.945 193.627C131.839 193.678 131.721 193.698 131.604 193.686C131.214 193.686 131.004 193.482 131.004 193.182C131.004 192.882 131.172 192.69 131.67 192.69H132.216V192.588C132.216 192.294 132.054 192.132 131.73 192.132C131.512 192.124 131.298 192.197 131.13 192.336L131.022 192.162C131.223 192.003 131.474 191.921 131.73 191.928C131.823 191.912 131.918 191.918 132.008 191.946C132.098 191.974 132.181 192.022 132.248 192.088C132.316 192.153 132.368 192.234 132.398 192.323C132.429 192.412 132.439 192.507 132.426 192.6ZM132.192 193.152V192.864H131.652C131.316 192.864 131.208 192.996 131.208 193.176C131.208 193.356 131.37 193.5 131.646 193.5C131.766 193.505 131.884 193.47 131.982 193.402C132.081 193.334 132.154 193.236 132.192 193.122V193.152Z" fill="black"/>
<path d="M136.8 192.636V193.638H136.572V192.66C136.572 192.294 136.386 192.108 136.074 192.108C135.994 192.102 135.913 192.113 135.837 192.141C135.761 192.169 135.693 192.213 135.636 192.27C135.579 192.327 135.535 192.395 135.507 192.471C135.479 192.547 135.468 192.628 135.474 192.708V193.614H135.246V192.66C135.246 192.294 135.06 192.108 134.742 192.108C134.662 192.102 134.581 192.113 134.505 192.141C134.429 192.169 134.361 192.213 134.304 192.27C134.247 192.327 134.203 192.395 134.175 192.471C134.147 192.547 134.136 192.628 134.142 192.708V193.614H133.908V191.886H134.13V192.204C134.196 192.096 134.29 192.009 134.402 191.951C134.514 191.893 134.64 191.866 134.766 191.874C134.892 191.864 135.017 191.894 135.125 191.96C135.233 192.026 135.317 192.124 135.366 192.24C135.436 192.122 135.536 192.026 135.657 191.962C135.778 191.897 135.913 191.867 136.05 191.874C136.154 191.855 136.26 191.862 136.361 191.894C136.461 191.926 136.552 191.982 136.626 192.057C136.7 192.132 136.754 192.224 136.784 192.325C136.815 192.426 136.82 192.533 136.8 192.636Z" fill="black"/>
<path d="M138.924 192.846H137.478C137.49 193.016 137.569 193.174 137.697 193.286C137.825 193.399 137.992 193.456 138.162 193.446C138.261 193.45 138.359 193.432 138.451 193.393C138.542 193.355 138.624 193.297 138.69 193.224L138.822 193.374C138.738 193.466 138.635 193.539 138.52 193.587C138.405 193.636 138.281 193.66 138.156 193.656C138.037 193.664 137.918 193.646 137.806 193.605C137.694 193.564 137.593 193.499 137.507 193.416C137.422 193.333 137.355 193.233 137.311 193.122C137.266 193.012 137.246 192.893 137.25 192.774C137.25 192.551 137.339 192.338 137.496 192.18C137.654 192.022 137.867 191.934 138.09 191.934C138.313 191.934 138.527 192.022 138.684 192.18C138.842 192.338 138.93 192.551 138.93 192.774C138.93 192.774 138.924 192.822 138.924 192.846ZM137.478 192.672H138.708C138.708 192.509 138.643 192.352 138.528 192.237C138.413 192.122 138.256 192.057 138.093 192.057C137.93 192.057 137.774 192.122 137.658 192.237C137.543 192.352 137.478 192.509 137.478 192.672Z" fill="black"/>
<path d="M142.26 192.636V193.638H142.026V192.66C142.026 192.294 141.846 192.108 141.534 192.108C141.454 192.101 141.372 192.111 141.296 192.139C141.22 192.166 141.151 192.21 141.094 192.267C141.036 192.325 140.992 192.394 140.965 192.47C140.937 192.546 140.927 192.627 140.934 192.708V193.614H140.7V192.66C140.7 192.294 140.52 192.108 140.202 192.108C140.122 192.101 140.04 192.111 139.964 192.139C139.888 192.166 139.819 192.21 139.762 192.267C139.704 192.325 139.66 192.394 139.633 192.47C139.605 192.546 139.595 192.627 139.602 192.708V193.614H139.368V191.886H139.59V192.204C139.656 192.096 139.75 192.008 139.862 191.95C139.974 191.892 140.1 191.866 140.226 191.874C140.352 191.864 140.478 191.894 140.585 191.96C140.693 192.026 140.777 192.124 140.826 192.24C140.896 192.122 140.997 192.026 141.117 191.962C141.238 191.897 141.374 191.867 141.51 191.874C141.614 191.855 141.72 191.862 141.821 191.894C141.921 191.926 142.012 191.982 142.086 192.057C142.16 192.132 142.214 192.224 142.245 192.325C142.275 192.426 142.28 192.533 142.26 192.636Z" fill="black"/>
<path d="M144.648 192.774C144.654 192.889 144.636 193.005 144.595 193.113C144.554 193.221 144.492 193.319 144.411 193.402C144.331 193.485 144.234 193.55 144.127 193.594C144.02 193.637 143.905 193.659 143.79 193.656C143.657 193.662 143.525 193.631 143.407 193.568C143.29 193.505 143.192 193.411 143.124 193.296V193.638H142.896V191.202H143.13V192.24C143.202 192.131 143.3 192.043 143.415 191.983C143.531 191.923 143.66 191.894 143.79 191.898C143.905 191.895 144.02 191.915 144.127 191.958C144.233 192.001 144.33 192.066 144.411 192.148C144.492 192.23 144.554 192.328 144.595 192.436C144.636 192.544 144.654 192.659 144.648 192.774ZM144.414 192.774C144.408 192.648 144.366 192.527 144.292 192.426C144.217 192.324 144.115 192.247 143.998 192.203C143.88 192.159 143.752 192.15 143.629 192.178C143.507 192.206 143.395 192.27 143.308 192.361C143.222 192.451 143.163 192.566 143.141 192.689C143.119 192.813 143.133 192.941 143.182 193.056C143.232 193.172 143.314 193.27 143.419 193.34C143.523 193.409 143.646 193.446 143.772 193.446C143.859 193.448 143.946 193.432 144.027 193.398C144.108 193.364 144.181 193.315 144.241 193.251C144.301 193.188 144.348 193.113 144.378 193.031C144.407 192.949 144.42 192.861 144.414 192.774Z" fill="black"/>
<path d="M146.634 192.846H145.2C145.205 192.93 145.226 193.012 145.263 193.088C145.299 193.164 145.351 193.232 145.414 193.288C145.477 193.344 145.55 193.386 145.63 193.413C145.71 193.441 145.794 193.452 145.878 193.446C145.978 193.446 146.076 193.424 146.167 193.381C146.257 193.339 146.336 193.277 146.4 193.2L146.532 193.35C146.408 193.48 146.248 193.571 146.073 193.611C145.898 193.65 145.714 193.637 145.546 193.573C145.378 193.509 145.233 193.397 145.129 193.25C145.024 193.104 144.966 192.93 144.96 192.75C144.954 192.636 144.972 192.522 145.012 192.415C145.052 192.308 145.114 192.211 145.193 192.129C145.272 192.046 145.368 191.981 145.473 191.938C145.579 191.894 145.692 191.872 145.806 191.874C145.92 191.871 146.033 191.892 146.138 191.936C146.244 191.979 146.339 192.045 146.417 192.127C146.496 192.21 146.556 192.308 146.595 192.415C146.633 192.522 146.648 192.636 146.64 192.75L146.634 192.846ZM145.188 192.672H146.388C146.388 192.513 146.325 192.36 146.212 192.248C146.1 192.135 145.947 192.072 145.788 192.072C145.629 192.072 145.476 192.135 145.364 192.248C145.251 192.36 145.188 192.513 145.188 192.672Z" fill="black"/>
<path d="M147.984 191.898V192.126H147.93C147.846 192.119 147.762 192.131 147.684 192.161C147.605 192.191 147.534 192.238 147.477 192.299C147.419 192.36 147.376 192.434 147.35 192.514C147.325 192.594 147.318 192.679 147.33 192.762V193.644H147.096V191.916H147.318V192.252C147.379 192.131 147.476 192.033 147.595 191.969C147.714 191.906 147.85 191.881 147.984 191.898Z" fill="black"/>
<path d="M149.496 191.928C149.496 191.688 149.304 191.526 148.968 191.526C148.85 191.519 148.732 191.54 148.623 191.585C148.513 191.631 148.416 191.701 148.338 191.79L148.164 191.658C148.266 191.543 148.393 191.452 148.536 191.393C148.678 191.333 148.832 191.307 148.986 191.316C149.448 191.316 149.742 191.538 149.742 191.916C149.742 192.474 149.142 192.516 149.142 192.972H148.896C148.896 192.408 149.496 192.354 149.496 191.928ZM148.848 193.482C148.856 193.442 148.877 193.406 148.908 193.38C148.939 193.354 148.978 193.34 149.019 193.34C149.06 193.34 149.099 193.354 149.13 193.38C149.161 193.406 149.183 193.442 149.19 193.482C149.195 193.507 149.194 193.533 149.188 193.558C149.181 193.583 149.169 193.606 149.153 193.625C149.137 193.645 149.116 193.661 149.093 193.672C149.07 193.683 149.045 193.688 149.019 193.688C148.993 193.688 148.968 193.683 148.945 193.672C148.922 193.661 148.901 193.645 148.885 193.625C148.869 193.606 148.857 193.583 148.851 193.558C148.844 193.533 148.843 193.507 148.848 193.482Z" fill="black"/>
<path d="M151.122 191.34H151.656V193.2H152.808V193.632H151.122V191.34Z" fill="black"/>
<path d="M152.928 192.756C152.916 192.562 152.963 192.368 153.062 192.201C153.161 192.033 153.308 191.899 153.485 191.816C153.661 191.734 153.858 191.706 154.05 191.736C154.243 191.766 154.421 191.854 154.563 191.987C154.705 192.12 154.804 192.293 154.847 192.483C154.889 192.673 154.874 192.872 154.802 193.053C154.731 193.234 154.607 193.389 154.446 193.499C154.285 193.609 154.095 193.668 153.9 193.668C153.775 193.676 153.65 193.659 153.533 193.617C153.415 193.574 153.307 193.509 153.216 193.423C153.125 193.338 153.052 193.234 153.003 193.119C152.953 193.005 152.928 192.881 152.928 192.756ZM154.35 192.756C154.343 192.669 154.311 192.586 154.257 192.517C154.204 192.447 154.131 192.395 154.049 192.367C153.966 192.338 153.877 192.334 153.792 192.355C153.708 192.377 153.631 192.422 153.571 192.486C153.512 192.55 153.473 192.63 153.458 192.717C153.443 192.803 153.454 192.891 153.489 192.972C153.524 193.052 153.581 193.12 153.654 193.168C153.727 193.216 153.813 193.242 153.9 193.242C153.963 193.243 154.025 193.231 154.082 193.207C154.14 193.182 154.191 193.146 154.234 193.1C154.276 193.054 154.309 193 154.329 192.94C154.349 192.881 154.356 192.818 154.35 192.756Z" fill="black"/>
<path d="M157.038 191.868V193.344C157.054 193.477 157.04 193.611 156.995 193.737C156.951 193.863 156.878 193.977 156.782 194.07C156.686 194.164 156.57 194.233 156.443 194.274C156.315 194.314 156.18 194.324 156.048 194.304C155.739 194.316 155.435 194.23 155.178 194.058L155.382 193.692C155.557 193.817 155.767 193.886 155.982 193.89C156.342 193.89 156.504 193.728 156.504 193.41V193.332C156.432 193.407 156.345 193.465 156.249 193.503C156.153 193.542 156.05 193.559 155.946 193.554C155.828 193.564 155.709 193.549 155.596 193.511C155.484 193.472 155.381 193.411 155.294 193.331C155.206 193.25 155.136 193.153 155.089 193.044C155.041 192.935 155.016 192.818 155.016 192.699C155.016 192.58 155.041 192.463 155.089 192.354C155.136 192.245 155.206 192.148 155.294 192.067C155.381 191.987 155.484 191.926 155.596 191.887C155.709 191.849 155.828 191.834 155.946 191.844C156.059 191.835 156.172 191.853 156.277 191.897C156.381 191.941 156.473 192.009 156.546 192.096V191.868H157.038ZM156.534 192.702C156.536 192.642 156.525 192.582 156.502 192.526C156.479 192.471 156.445 192.421 156.401 192.379C156.358 192.338 156.306 192.306 156.249 192.286C156.192 192.267 156.132 192.259 156.072 192.264C156.011 192.257 155.948 192.263 155.889 192.281C155.83 192.3 155.776 192.331 155.73 192.372C155.684 192.413 155.647 192.463 155.621 192.52C155.596 192.576 155.583 192.637 155.583 192.699C155.583 192.761 155.596 192.822 155.621 192.878C155.647 192.935 155.684 192.985 155.73 193.026C155.776 193.067 155.83 193.098 155.889 193.117C155.948 193.135 156.011 193.141 156.072 193.134C156.131 193.139 156.191 193.132 156.248 193.112C156.304 193.093 156.356 193.061 156.399 193.021C156.443 192.98 156.477 192.931 156.5 192.876C156.524 192.821 156.535 192.762 156.534 192.702Z" fill="black"/>
<path d="M158.4 191.34C158.401 191.3 158.41 191.26 158.426 191.224C158.443 191.187 158.467 191.154 158.497 191.127C158.527 191.1 158.562 191.08 158.6 191.067C158.638 191.054 158.678 191.049 158.718 191.052C158.757 191.048 158.797 191.052 158.835 191.064C158.872 191.076 158.907 191.095 158.937 191.121C158.967 191.147 158.991 191.179 159.008 191.214C159.025 191.25 159.035 191.289 159.036 191.328C159.036 191.412 159.003 191.493 158.943 191.553C158.883 191.612 158.802 191.646 158.718 191.646C158.634 191.646 158.553 191.612 158.493 191.553C158.434 191.493 158.4 191.412 158.4 191.328V191.34ZM158.46 191.868H158.97V193.668H158.46V191.868Z" fill="black"/>
<path d="M161.244 192.6V193.614H160.734V192.684C160.734 192.396 160.602 192.264 160.374 192.264C160.146 192.264 159.948 192.414 159.948 192.738V193.614H159.438V191.814H159.93V192.024C160.007 191.944 160.101 191.882 160.204 191.842C160.308 191.801 160.419 191.784 160.53 191.79C160.634 191.785 160.737 191.803 160.833 191.843C160.928 191.884 161.014 191.945 161.082 192.023C161.151 192.101 161.201 192.193 161.229 192.293C161.257 192.393 161.262 192.498 161.244 192.6Z" fill="black"/>
</g>
<path d="M178.752 198.378H100.248V211.818H178.752V198.378Z" fill="#00B96D"/>
<path d="M129.36 207.186L128.4 205.8H128.112H126.972V207.198H126.312V202.596H128.112C129.312 202.596 130.026 203.196 130.026 204.204C130.041 204.523 129.951 204.839 129.768 205.101C129.586 205.364 129.322 205.559 129.018 205.656L130.11 207.198L129.36 207.186ZM129.36 204.186C129.36 203.526 128.922 203.154 128.076 203.154H126.96V205.224H128.076C128.904 205.23 129.342 204.846 129.342 204.192L129.36 204.186Z" fill="white"/>
<path d="M134.112 205.656H131.286C131.331 205.953 131.485 206.222 131.718 206.411C131.951 206.6 132.247 206.694 132.546 206.676C132.734 206.683 132.922 206.649 133.096 206.576C133.27 206.504 133.426 206.395 133.554 206.256L133.902 206.664C133.645 206.925 133.319 207.106 132.962 207.185C132.605 207.265 132.232 207.24 131.889 207.113C131.546 206.987 131.246 206.764 131.026 206.471C130.807 206.179 130.676 205.829 130.65 205.464C130.638 205.228 130.674 204.993 130.757 204.772C130.84 204.551 130.968 204.35 131.132 204.181C131.297 204.012 131.495 203.878 131.713 203.79C131.932 203.701 132.166 203.658 132.402 203.664C132.637 203.658 132.87 203.7 133.087 203.79C133.304 203.879 133.5 204.012 133.662 204.182C133.825 204.352 133.95 204.553 134.029 204.774C134.109 204.995 134.141 205.23 134.124 205.464C134.124 205.518 134.118 205.596 134.112 205.656ZM131.286 205.2H133.518C133.489 204.924 133.36 204.668 133.153 204.483C132.947 204.297 132.68 204.194 132.402 204.194C132.125 204.194 131.857 204.297 131.651 204.483C131.445 204.668 131.315 204.924 131.286 205.2Z" fill="white"/>
<path d="M138.336 203.706V206.706C138.336 207.936 137.706 208.506 136.536 208.506C135.939 208.532 135.352 208.349 134.874 207.99L135.174 207.504C135.558 207.802 136.032 207.961 136.518 207.954C137.34 207.954 137.718 207.576 137.718 206.784V206.508C137.563 206.686 137.37 206.827 137.152 206.921C136.935 207.014 136.7 207.058 136.464 207.048C136.017 207.048 135.588 206.87 135.272 206.554C134.956 206.238 134.778 205.809 134.778 205.362C134.778 204.915 134.956 204.486 135.272 204.17C135.588 203.854 136.017 203.676 136.464 203.676C136.711 203.668 136.956 203.719 137.18 203.823C137.404 203.927 137.601 204.082 137.754 204.276V203.736L138.336 203.706ZM137.736 205.356C137.749 205.116 137.69 204.878 137.567 204.672C137.443 204.466 137.261 204.302 137.043 204.201C136.825 204.1 136.582 204.067 136.345 204.106C136.108 204.144 135.888 204.253 135.714 204.418C135.539 204.583 135.418 204.796 135.366 205.031C135.314 205.265 135.334 205.51 135.423 205.733C135.511 205.956 135.665 206.147 135.863 206.282C136.062 206.417 136.296 206.49 136.536 206.49C136.69 206.499 136.843 206.476 136.988 206.423C137.132 206.37 137.264 206.288 137.375 206.181C137.486 206.075 137.574 205.947 137.633 205.805C137.692 205.662 137.721 205.51 137.718 205.356H137.736Z" fill="white"/>
<path d="M139.428 202.626C139.429 202.571 139.44 202.516 139.462 202.466C139.484 202.415 139.516 202.369 139.555 202.331C139.595 202.292 139.642 202.262 139.693 202.242C139.744 202.221 139.799 202.211 139.854 202.212C139.912 202.205 139.971 202.21 140.027 202.228C140.083 202.245 140.134 202.274 140.178 202.313C140.222 202.352 140.257 202.4 140.281 202.453C140.305 202.507 140.318 202.564 140.318 202.623C140.318 202.682 140.305 202.739 140.281 202.793C140.257 202.846 140.222 202.894 140.178 202.933C140.134 202.972 140.083 203.001 140.027 203.018C139.971 203.036 139.912 203.041 139.854 203.034C139.799 203.036 139.744 203.026 139.693 203.007C139.642 202.987 139.595 202.957 139.556 202.919C139.516 202.881 139.484 202.836 139.462 202.785C139.44 202.735 139.429 202.681 139.428 202.626ZM139.542 203.706H140.172V207.186H139.542V203.706Z" fill="white"/>
<path d="M140.934 206.82L141.198 206.322C141.556 206.554 141.972 206.679 142.398 206.682C142.998 206.682 143.226 206.502 143.226 206.208C143.226 205.428 141.024 206.106 141.024 204.714C141.024 204.114 141.582 203.67 142.476 203.67C142.919 203.663 143.355 203.773 143.742 203.988L143.472 204.486C143.172 204.297 142.824 204.201 142.47 204.21C141.918 204.21 141.648 204.414 141.648 204.69C141.648 205.512 143.856 204.84 143.856 206.196C143.856 206.796 143.256 207.228 142.35 207.228C141.848 207.235 141.355 207.093 140.934 206.82Z" fill="white"/>
<path d="M146.628 207C146.41 207.167 146.141 207.254 145.866 207.246C145.718 207.263 145.568 207.246 145.427 207.198C145.286 207.149 145.158 207.069 145.052 206.965C144.946 206.86 144.865 206.733 144.815 206.592C144.765 206.452 144.747 206.302 144.762 206.154V204.24H144.162V203.724H144.762V202.962H145.362V203.724H146.4V204.24H145.398V206.13C145.384 206.207 145.388 206.287 145.409 206.362C145.431 206.438 145.47 206.507 145.523 206.565C145.575 206.623 145.641 206.668 145.714 206.697C145.787 206.726 145.866 206.737 145.944 206.73C146.121 206.732 146.294 206.675 146.436 206.568L146.628 207Z" fill="white"/>
<path d="M150.408 205.656H147.6C147.644 205.954 147.799 206.224 148.034 206.413C148.268 206.602 148.565 206.696 148.866 206.676C149.053 206.683 149.24 206.649 149.413 206.577C149.586 206.504 149.742 206.395 149.868 206.256L150.216 206.664C149.96 206.925 149.634 207.107 149.277 207.187C148.92 207.267 148.547 207.242 148.204 207.115C147.861 206.989 147.562 206.765 147.343 206.472C147.124 206.179 146.994 205.829 146.97 205.464C146.957 205.228 146.994 204.993 147.077 204.772C147.16 204.551 147.288 204.35 147.452 204.181C147.617 204.012 147.814 203.878 148.033 203.79C148.252 203.701 148.486 203.658 148.722 203.664C148.956 203.658 149.189 203.702 149.406 203.791C149.622 203.881 149.818 204.015 149.98 204.184C150.142 204.353 150.267 204.555 150.347 204.775C150.427 204.996 150.46 205.23 150.444 205.464C150.438 205.529 150.426 205.593 150.408 205.656ZM147.6 205.2H149.838C149.803 204.928 149.671 204.677 149.465 204.496C149.259 204.314 148.993 204.214 148.719 204.214C148.444 204.214 148.179 204.314 147.973 204.496C147.767 204.677 147.635 204.928 147.6 205.2Z" fill="white"/>
<path d="M153.174 203.67V204.27H153.03C152.874 204.259 152.717 204.283 152.572 204.341C152.427 204.399 152.297 204.489 152.191 204.605C152.085 204.72 152.007 204.858 151.962 205.008C151.918 205.158 151.907 205.316 151.932 205.47V207.204H151.302V203.724H151.902V204.324C152.029 204.104 152.216 203.926 152.442 203.81C152.667 203.694 152.922 203.645 153.174 203.67Z" fill="white"/>
<g opacity="0.6">
<path d="M125.754 106.566L126.024 106.002C126.489 106.392 127.078 106.605 127.686 106.602C128.556 106.602 128.928 106.266 128.928 105.828C128.928 104.628 125.88 105.372 125.88 103.506C125.88 102.726 126.48 102.066 127.806 102.066C128.377 102.057 128.939 102.211 129.426 102.51L129.186 103.11C128.774 102.846 128.295 102.705 127.806 102.702C126.948 102.702 126.606 103.062 126.606 103.5C126.606 104.7 129.66 103.956 129.66 105.81C129.66 106.578 129.06 107.238 127.71 107.238C126.999 107.253 126.306 107.015 125.754 106.566Z" fill="#263238"/>
<path d="M130.464 102.144C130.465 102.084 130.477 102.024 130.501 101.969C130.525 101.913 130.56 101.863 130.604 101.821C130.647 101.779 130.699 101.746 130.755 101.725C130.811 101.703 130.871 101.692 130.932 101.694C130.991 101.692 131.051 101.701 131.107 101.722C131.163 101.743 131.214 101.774 131.258 101.815C131.301 101.856 131.336 101.905 131.361 101.959C131.385 102.014 131.398 102.072 131.4 102.132C131.4 102.256 131.351 102.375 131.263 102.463C131.175 102.551 131.056 102.6 130.932 102.6C130.808 102.6 130.689 102.551 130.601 102.463C130.513 102.375 130.464 102.256 130.464 102.132V102.144ZM130.584 103.344H131.28V107.16H130.584V103.344Z" fill="#263238"/>
<path d="M136.242 103.326V106.62C136.242 107.97 135.558 108.582 134.268 108.582C133.62 108.603 132.985 108.401 132.468 108.012L132.798 107.478C133.216 107.809 133.735 107.985 134.268 107.976C135.168 107.976 135.576 107.556 135.576 106.692V106.392C135.406 106.588 135.194 106.744 134.957 106.848C134.719 106.951 134.461 107.001 134.202 106.992C133.951 107.006 133.699 106.969 133.463 106.883C133.227 106.797 133.01 106.663 132.828 106.49C132.645 106.318 132.499 106.109 132.399 105.878C132.3 105.647 132.249 105.399 132.249 105.147C132.249 104.895 132.3 104.647 132.399 104.416C132.499 104.185 132.645 103.976 132.828 103.804C133.01 103.631 133.227 103.497 133.463 103.411C133.699 103.325 133.951 103.288 134.202 103.302C134.467 103.288 134.732 103.335 134.976 103.439C135.22 103.543 135.438 103.701 135.612 103.902V103.302L136.242 103.326ZM135.57 105.126C135.583 104.864 135.517 104.603 135.381 104.379C135.245 104.154 135.045 103.976 134.806 103.866C134.567 103.756 134.301 103.721 134.042 103.764C133.783 103.807 133.543 103.926 133.353 104.107C133.162 104.288 133.03 104.522 132.974 104.778C132.918 105.035 132.94 105.302 133.037 105.546C133.134 105.79 133.302 106 133.519 106.147C133.737 106.295 133.993 106.374 134.256 106.374C134.427 106.389 134.6 106.368 134.763 106.312C134.927 106.257 135.076 106.167 135.203 106.05C135.329 105.934 135.43 105.791 135.498 105.633C135.567 105.475 135.601 105.304 135.6 105.132L135.57 105.126Z" fill="#263238"/>
<path d="M141.186 104.946V107.142H140.49V105C140.49 104.25 140.118 103.884 139.464 103.884C139.298 103.873 139.131 103.899 138.976 103.96C138.821 104.02 138.682 104.115 138.567 104.235C138.452 104.356 138.366 104.501 138.314 104.659C138.261 104.817 138.244 104.985 138.264 105.15V107.118H137.574V103.302H138.24V103.902C138.404 103.699 138.614 103.538 138.853 103.433C139.093 103.329 139.354 103.284 139.614 103.302C139.83 103.287 140.047 103.321 140.25 103.399C140.452 103.478 140.634 103.6 140.784 103.756C140.934 103.913 141.048 104.101 141.117 104.307C141.187 104.512 141.21 104.73 141.186 104.946Z" fill="#263238"/>
<path d="M147.96 103.326V107.142H147.306V106.542C147.154 106.738 146.956 106.895 146.731 107C146.505 107.104 146.258 107.153 146.01 107.142C145.787 107.165 145.561 107.138 145.35 107.062C145.139 106.986 144.948 106.864 144.79 106.705C144.632 106.545 144.512 106.352 144.439 106.141C144.365 105.929 144.34 105.703 144.366 105.48V103.284H145.056V105.402C145.056 106.146 145.434 106.524 146.088 106.524C146.254 106.536 146.421 106.511 146.577 106.45C146.732 106.39 146.873 106.296 146.987 106.175C147.102 106.054 147.189 105.909 147.241 105.75C147.293 105.592 147.309 105.424 147.288 105.258V103.284L147.96 103.326Z" fill="#263238"/>
<path d="M153.228 105.234C153.242 105.492 153.201 105.749 153.11 105.99C153.018 106.231 152.877 106.451 152.696 106.634C152.514 106.818 152.297 106.962 152.057 107.056C151.817 107.151 151.56 107.194 151.302 107.184C151.049 107.194 150.797 107.145 150.565 107.041C150.334 106.937 150.13 106.78 149.97 106.584V108.552H149.28V103.344H149.94V103.944C150.098 103.735 150.305 103.568 150.542 103.456C150.779 103.344 151.04 103.291 151.302 103.302C151.558 103.291 151.814 103.333 152.053 103.427C152.293 103.52 152.51 103.662 152.691 103.844C152.872 104.025 153.013 104.243 153.106 104.482C153.198 104.722 153.24 104.978 153.228 105.234ZM152.532 105.234C152.52 104.983 152.435 104.741 152.288 104.538C152.14 104.335 151.936 104.18 151.701 104.092C151.466 104.004 151.21 103.986 150.965 104.042C150.72 104.098 150.497 104.224 150.323 104.405C150.149 104.586 150.032 104.814 149.987 105.061C149.941 105.308 149.969 105.563 150.067 105.794C150.165 106.025 150.328 106.223 150.537 106.362C150.746 106.502 150.991 106.577 151.242 106.578C151.417 106.582 151.591 106.549 151.753 106.482C151.914 106.415 152.061 106.315 152.182 106.189C152.303 106.063 152.397 105.913 152.457 105.748C152.517 105.584 152.543 105.409 152.532 105.234Z" fill="#263238"/>
</g>
<path d="M178.752 135.324H100.248V148.764H178.752V135.324Z" fill="white"/>
<g opacity="0.4">
<path d="M104.544 139.854H104.952V143.352H107.106V143.706H104.544V139.854Z" fill="#263238"/>
<path d="M109.896 141.912V143.712H109.524V143.262C109.415 143.423 109.265 143.551 109.09 143.636C108.915 143.72 108.721 143.757 108.528 143.742C107.874 143.742 107.472 143.4 107.472 142.896C107.472 142.392 107.754 142.08 108.588 142.08H109.506V141.906C109.506 141.408 109.224 141.138 108.684 141.138C108.333 141.133 107.993 141.255 107.724 141.48L107.544 141.186C107.887 140.921 108.311 140.783 108.744 140.796C108.897 140.778 109.051 140.793 109.197 140.842C109.343 140.891 109.476 140.972 109.586 141.079C109.696 141.186 109.782 141.317 109.835 141.461C109.889 141.605 109.91 141.759 109.896 141.912ZM109.506 142.836V142.362H108.6C108.036 142.362 107.856 142.584 107.856 142.884C107.856 143.184 108.126 143.424 108.588 143.424C108.784 143.436 108.978 143.386 109.143 143.28C109.308 143.174 109.435 143.019 109.506 142.836Z" fill="#263238"/>
<path d="M110.556 143.4L110.73 143.094C111.033 143.305 111.393 143.418 111.762 143.418C112.314 143.418 112.536 143.232 112.536 142.944C112.536 142.188 110.664 142.782 110.664 141.642C110.664 141.168 111.066 140.814 111.804 140.814C112.164 140.809 112.519 140.903 112.83 141.084L112.656 141.396C112.404 141.229 112.106 141.143 111.804 141.15C111.282 141.15 111.054 141.354 111.054 141.63C111.054 142.41 112.926 141.822 112.926 142.932C112.926 143.436 112.488 143.76 111.726 143.76C111.307 143.769 110.897 143.643 110.556 143.4Z" fill="#263238"/>
<path d="M115.2 143.532C115.029 143.667 114.817 143.739 114.6 143.736C114.486 143.748 114.37 143.735 114.262 143.697C114.154 143.659 114.056 143.597 113.974 143.515C113.893 143.434 113.831 143.336 113.793 143.228C113.755 143.12 113.742 143.004 113.754 142.89V141.144H113.232V140.814H113.754V140.178H114.144V140.814H115.02V141.144H114.144V142.872C114.134 142.941 114.139 143.012 114.16 143.078C114.181 143.145 114.217 143.206 114.265 143.257C114.313 143.308 114.372 143.347 114.437 143.372C114.502 143.397 114.572 143.406 114.642 143.4C114.799 143.405 114.953 143.351 115.074 143.25L115.2 143.532Z" fill="#263238"/>
<path d="M120.6 139.854V143.706H120.264L117.792 140.58V143.706H117.384V139.854H117.72L120.198 142.98V139.854H120.6Z" fill="#263238"/>
<path d="M123.984 141.912V143.712H123.6V143.262C123.492 143.423 123.342 143.553 123.167 143.637C122.992 143.722 122.798 143.758 122.604 143.742C121.95 143.742 121.548 143.4 121.548 142.896C121.548 142.392 121.836 142.08 122.67 142.08H123.6V141.906C123.6 141.408 123.318 141.138 122.778 141.138C122.427 141.133 122.087 141.255 121.818 141.48L121.638 141.186C121.98 140.919 122.404 140.781 122.838 140.796C122.99 140.778 123.144 140.795 123.289 140.845C123.434 140.894 123.566 140.975 123.676 141.082C123.786 141.189 123.87 141.319 123.923 141.462C123.977 141.606 123.997 141.759 123.984 141.912ZM123.594 142.836V142.362H122.682C122.124 142.362 121.944 142.584 121.944 142.884C121.944 143.184 122.214 143.424 122.676 143.424C122.872 143.437 123.068 143.387 123.234 143.282C123.401 143.176 123.529 143.02 123.6 142.836H123.594Z" fill="#263238"/>
<path d="M129.822 142.026V143.706H129.432V142.068C129.432 141.468 129.12 141.144 128.598 141.144C128.463 141.138 128.327 141.161 128.202 141.212C128.077 141.264 127.964 141.342 127.872 141.441C127.78 141.541 127.711 141.659 127.669 141.788C127.628 141.917 127.615 142.054 127.632 142.188V143.706H127.242V142.068C127.242 141.468 126.93 141.144 126.402 141.144C126.267 141.138 126.132 141.161 126.006 141.212C125.881 141.264 125.768 141.342 125.676 141.441C125.584 141.541 125.515 141.659 125.473 141.788C125.432 141.917 125.419 142.054 125.436 142.188V143.706H125.046V140.814H125.4V141.342C125.513 141.165 125.671 141.021 125.857 140.924C126.044 140.827 126.252 140.781 126.462 140.79C126.675 140.773 126.888 140.821 127.072 140.928C127.257 141.035 127.404 141.196 127.494 141.39C127.612 141.197 127.781 141.039 127.981 140.933C128.182 140.828 128.407 140.778 128.634 140.79C128.798 140.774 128.964 140.795 129.119 140.852C129.273 140.91 129.413 141.001 129.527 141.12C129.642 141.239 129.728 141.382 129.779 141.539C129.83 141.696 129.844 141.863 129.822 142.026Z" fill="#263238"/>
<path d="M133.416 142.38H131.016C131.024 142.521 131.06 142.659 131.122 142.786C131.184 142.913 131.271 143.027 131.377 143.121C131.482 143.214 131.606 143.286 131.74 143.332C131.873 143.378 132.015 143.397 132.156 143.388C132.322 143.393 132.488 143.362 132.642 143.297C132.795 143.232 132.932 143.134 133.044 143.01L133.26 143.262C133.052 143.479 132.785 143.63 132.491 143.696C132.198 143.762 131.892 143.741 131.611 143.634C131.33 143.527 131.087 143.34 130.911 143.095C130.736 142.851 130.637 142.56 130.626 142.26C130.616 142.069 130.645 141.878 130.712 141.699C130.779 141.519 130.882 141.356 131.015 141.218C131.148 141.08 131.308 140.971 131.484 140.897C131.661 140.824 131.851 140.787 132.042 140.79C132.233 140.786 132.423 140.822 132.599 140.896C132.776 140.969 132.935 141.078 133.067 141.217C133.199 141.355 133.301 141.519 133.366 141.698C133.431 141.878 133.458 142.069 133.446 142.26C133.422 142.296 133.416 142.338 133.416 142.38ZM131.016 142.092H133.068C133.068 141.82 132.96 141.559 132.767 141.367C132.575 141.174 132.314 141.066 132.042 141.066C131.77 141.066 131.509 141.174 131.316 141.367C131.124 141.559 131.016 141.82 131.016 142.092Z" fill="#263238"/>
</g>
<path d="M178.752 116.964H100.248V130.404H178.752V116.964Z" fill="white"/>
<g opacity="0.4">
<path d="M104.952 121.848V123.36H106.944V123.714H104.952V125.346H104.544V121.494H107.184V121.848H104.952Z" fill="#263238"/>
<path d="M107.802 121.536C107.801 121.479 107.817 121.422 107.848 121.374C107.879 121.326 107.924 121.288 107.977 121.265C108.03 121.243 108.088 121.236 108.144 121.247C108.201 121.258 108.253 121.286 108.293 121.326C108.334 121.367 108.362 121.419 108.373 121.475C108.383 121.532 108.377 121.59 108.355 121.643C108.332 121.696 108.294 121.741 108.246 121.772C108.198 121.803 108.141 121.819 108.084 121.818C108.009 121.818 107.937 121.788 107.884 121.735C107.832 121.683 107.802 121.611 107.802 121.536ZM107.886 122.454H108.276V125.346H107.886V122.454Z" fill="#263238"/>
<path d="M110.826 122.43V122.808H110.73C110.592 122.801 110.454 122.825 110.327 122.878C110.199 122.931 110.085 123.011 109.992 123.113C109.899 123.215 109.83 123.336 109.79 123.468C109.749 123.6 109.738 123.739 109.758 123.876V125.352H109.368V122.46H109.74V123C109.844 122.808 110.002 122.651 110.196 122.549C110.389 122.448 110.609 122.406 110.826 122.43Z" fill="#263238"/>
<path d="M111.15 125.016L111.324 124.704C111.624 124.921 111.985 125.037 112.356 125.034C112.908 125.034 113.13 124.842 113.13 124.56C113.13 123.804 111.258 124.398 111.258 123.252C111.258 122.784 111.66 122.43 112.398 122.43C112.758 122.422 113.114 122.516 113.424 122.7L113.25 123.012C112.998 122.845 112.7 122.759 112.398 122.766C111.876 122.766 111.648 122.97 111.648 123.246C111.648 124.026 113.52 123.438 113.52 124.548C113.52 125.046 113.082 125.37 112.32 125.37C111.902 125.381 111.492 125.257 111.15 125.016Z" fill="#263238"/>
<path d="M115.8 125.172C115.628 125.303 115.416 125.373 115.2 125.37C115.086 125.383 114.971 125.371 114.863 125.333C114.754 125.296 114.656 125.235 114.575 125.154C114.493 125.073 114.431 124.975 114.393 124.867C114.355 124.759 114.342 124.644 114.354 124.53V122.784H113.832V122.454H114.354V121.8H114.744V122.436H115.62V122.766H114.744V124.488C114.734 124.557 114.74 124.628 114.761 124.695C114.781 124.762 114.817 124.823 114.865 124.874C114.913 124.926 114.971 124.966 115.037 124.991C115.102 125.017 115.172 125.027 115.242 125.022C115.399 125.024 115.552 124.971 115.674 124.872L115.8 125.172Z" fill="#263238"/>
<path d="M121.2 121.494V125.346H120.864L118.392 122.22V125.346H117.984V121.494H118.32L120.798 124.62V121.494H121.2Z" fill="#263238"/>
<path d="M124.578 123.552V125.352H124.2V124.902C124.092 125.062 123.944 125.191 123.77 125.274C123.596 125.358 123.402 125.393 123.21 125.376C122.55 125.376 122.148 125.04 122.148 124.536C122.148 124.032 122.436 123.72 123.27 123.72H124.2V123.54C124.2 123.048 123.918 122.778 123.378 122.778C123.027 122.773 122.687 122.895 122.418 123.12L122.238 122.826C122.58 122.56 123.005 122.422 123.438 122.436C123.59 122.418 123.744 122.435 123.888 122.484C124.033 122.534 124.165 122.615 124.274 122.722C124.384 122.829 124.468 122.959 124.52 123.103C124.573 123.246 124.592 123.4 124.578 123.552ZM124.188 124.476V124.002H123.276C122.718 124.002 122.538 124.224 122.538 124.518C122.538 124.812 122.808 125.064 123.27 125.064C123.467 125.078 123.664 125.028 123.831 124.922C123.998 124.817 124.128 124.66 124.2 124.476H124.188Z" fill="#263238"/>
<path d="M130.416 123.666V125.346H130.026V123.708C130.026 123.108 129.714 122.784 129.192 122.784C129.057 122.778 128.921 122.801 128.796 122.852C128.671 122.904 128.558 122.982 128.466 123.081C128.374 123.181 128.305 123.299 128.263 123.428C128.222 123.557 128.209 123.694 128.226 123.828V125.346H127.836V123.708C127.836 123.108 127.524 122.784 126.996 122.784C126.861 122.778 126.725 122.801 126.6 122.852C126.475 122.904 126.362 122.982 126.27 123.081C126.178 123.181 126.109 123.299 126.067 123.428C126.026 123.557 126.013 123.694 126.03 123.828V125.346H125.64V122.454H126V123C126.113 122.823 126.271 122.679 126.457 122.582C126.644 122.485 126.852 122.439 127.062 122.448C127.275 122.431 127.488 122.479 127.672 122.586C127.857 122.693 128.004 122.854 128.094 123.048C128.211 122.854 128.38 122.695 128.58 122.59C128.781 122.484 129.007 122.435 129.234 122.448C129.396 122.433 129.559 122.455 129.712 122.512C129.864 122.568 130.002 122.658 130.115 122.775C130.229 122.892 130.314 123.032 130.366 123.187C130.418 123.341 130.435 123.504 130.416 123.666Z" fill="#263238"/>
<path d="M134.01 124.02H131.61C131.618 124.161 131.654 124.299 131.716 124.426C131.778 124.553 131.865 124.667 131.971 124.761C132.076 124.854 132.2 124.926 132.334 124.972C132.467 125.018 132.609 125.037 132.75 125.028C132.917 125.033 133.083 125.002 133.237 124.935C133.39 124.869 133.527 124.77 133.638 124.644L133.854 124.902C133.646 125.119 133.379 125.27 133.085 125.336C132.792 125.402 132.486 125.381 132.205 125.274C131.924 125.167 131.681 124.98 131.505 124.735C131.33 124.491 131.231 124.2 131.22 123.9C131.21 123.709 131.239 123.518 131.306 123.339C131.373 123.159 131.476 122.996 131.609 122.858C131.742 122.72 131.902 122.611 132.078 122.537C132.255 122.464 132.445 122.427 132.636 122.43C132.827 122.426 133.017 122.462 133.193 122.536C133.37 122.609 133.529 122.718 133.661 122.857C133.793 122.995 133.895 123.159 133.96 123.338C134.025 123.518 134.052 123.709 134.04 123.9C134.016 123.93 134.01 123.972 134.01 124.02ZM131.61 123.726H133.662C133.662 123.454 133.554 123.193 133.361 123.001C133.169 122.808 132.908 122.7 132.636 122.7C132.364 122.7 132.103 122.808 131.91 123.001C131.718 123.193 131.61 123.454 131.61 123.726Z" fill="#263238"/>
</g>
<path d="M70.71 231.168H70.14C70.14 230.322 70.842 210.498 74.292 207.168C77.838 203.718 82.008 207.12 82.044 207.168L81.684 207.6C81.528 207.474 77.862 204.498 74.682 207.6C71.4 210.726 70.716 230.964 70.71 231.168Z" fill="#00B96D"/>
<path d="M70.4221 235.146L69.8581 235.092C69.8581 234.852 72.0901 211.02 63.4561 201.108L63.8821 200.736C72.6781 210.834 70.4461 234.906 70.4221 235.146Z" fill="#00B96D"/>
<path d="M70.698 232.602C70.626 231.474 68.964 205.002 75.6 198.882L75.984 199.302C69.546 205.218 71.244 232.302 71.262 232.56L70.698 232.602Z" fill="#00B96D"/>
<path d="M69.858 232.584C69.858 232.404 69.654 214.584 64.932 211.902C64.5306 211.637 64.0714 211.473 63.5932 211.423C63.1149 211.373 62.6316 211.438 62.184 211.614C59.418 212.76 57.948 218.04 57.93 218.094L57.384 217.944C57.444 217.716 58.944 212.346 61.968 211.092C62.4948 210.88 63.0649 210.799 63.6299 210.854C64.1949 210.909 64.7383 211.1 65.214 211.41C70.212 214.272 70.422 231.81 70.428 232.578L69.858 232.584Z" fill="#00B96D"/>
<path d="M71.802 232.596C71.766 231.996 71.04 218.532 74.862 213.534C75.882 212.208 77.01 211.578 78.234 211.668C80.952 211.854 83.034 215.538 83.148 215.694L82.656 215.976C82.656 215.94 80.604 212.376 78.192 212.232C77.178 212.154 76.206 212.712 75.312 213.882C71.616 218.682 72.36 232.428 72.366 232.566L71.802 232.596Z" fill="#00B96D"/>
<path d="M71.04 234.462L70.476 234.42C70.476 234.096 72.876 201.948 68.916 196.584L69.372 196.248C73.464 201.78 71.142 233.13 71.04 234.462Z" fill="#00B96D"/>
<path d="M60.87 214.29C60.87 214.29 63.318 215.196 62.592 217.326C61.866 219.456 54.114 222.966 54.114 222.966C54.114 222.966 50.868 219.996 53.85 215.166C56.832 210.336 60.804 212.766 60.87 214.29Z" fill="#00B96D"/>
<path opacity="0.2" d="M60.87 214.29C60.87 214.29 63.318 215.196 62.592 217.326C61.866 219.456 54.114 222.966 54.114 222.966C54.114 222.966 50.868 219.996 53.85 215.166C56.832 210.336 60.804 212.766 60.87 214.29Z" fill="black"/>
<path d="M71.5201 210.234C71.5201 210.234 68.9101 210.126 68.7601 212.37C68.6101 214.614 74.4001 220.842 74.4001 220.842C74.4001 220.842 78.5401 219.342 77.6521 213.732C76.7641 208.122 72.1681 208.848 71.5201 210.234Z" fill="#00B96D"/>
<path opacity="0.2" d="M71.5201 210.234C71.5201 210.234 68.9101 210.126 68.7601 212.37C68.6101 214.614 74.4001 220.842 74.4001 220.842C74.4001 220.842 78.5401 219.342 77.6521 213.732C76.7641 208.122 72.1681 208.848 71.5201 210.234Z" fill="black"/>
<path d="M73.7281 199.47C73.7281 199.47 71.9881 199.284 72.1261 198.228C72.2641 197.172 78.8881 194.442 82.7941 198.828C82.7941 198.828 80.2921 203.124 76.6801 203.184C73.0681 203.244 73.7281 199.47 73.7281 199.47Z" fill="#00B96D"/>
<path opacity="0.2" d="M73.7281 199.47C73.7281 199.47 71.9881 199.284 72.1261 198.228C72.2641 197.172 78.8881 194.442 82.7941 198.828C82.7941 198.828 80.2921 203.124 76.6801 203.184C73.0681 203.244 73.7281 199.47 73.7281 199.47Z" fill="black"/>
<path d="M70.488 196.896C70.488 196.896 72.06 197.658 72.504 196.686C72.948 195.714 68.766 189.9 63.12 191.574C63.12 191.574 62.97 196.542 66.006 198.504C69.042 200.466 70.488 196.896 70.488 196.896Z" fill="#00B96D"/>
<path opacity="0.2" d="M70.488 196.896C70.488 196.896 72.06 197.658 72.504 196.686C72.948 195.714 68.766 189.9 63.12 191.574C63.12 191.574 62.97 196.542 66.006 198.504C69.042 200.466 70.488 196.896 70.488 196.896Z" fill="black"/>
<path d="M78.7201 213.438C78.7201 213.438 77.5201 212.466 78.8161 211.992C80.1121 211.518 86.4661 211.656 86.5321 217.95C86.5321 217.95 79.1281 219.18 78.2161 216.78C77.3041 214.38 78.7201 213.438 78.7201 213.438Z" fill="#00B96D"/>
<path opacity="0.2" d="M78.7201 213.438C78.7201 213.438 77.5201 212.466 78.8161 211.992C80.1121 211.518 86.4661 211.656 86.5321 217.95C86.5321 217.95 79.1281 219.18 78.2161 216.78C77.3041 214.38 78.7201 213.438 78.7201 213.438Z" fill="black"/>
<path d="M63.6001 199.314C63.6001 199.314 64.8001 198.342 63.5041 197.874C62.2081 197.406 55.8541 197.532 55.7881 203.826C55.7881 203.826 63.1921 205.062 64.1041 202.662C65.0161 200.262 63.6001 199.314 63.6001 199.314Z" fill="#00B96D"/>
<path opacity="0.2" d="M63.6001 199.314C63.6001 199.314 64.8001 198.342 63.5041 197.874C62.2081 197.406 55.8541 197.532 55.7881 203.826C55.7881 203.826 63.1921 205.062 64.1041 202.662C65.0161 200.262 63.6001 199.314 63.6001 199.314Z" fill="black"/>
<path d="M67.536 204.384C67.536 204.384 67.644 203.184 66.69 203.67C65.736 204.156 62.43 207.708 65.862 211.098C65.862 211.098 70.488 207.672 69.654 205.89C68.82 204.108 67.536 204.384 67.536 204.384Z" fill="#00B96D"/>
<path opacity="0.2" d="M67.536 204.384C67.536 204.384 67.644 203.184 66.69 203.67C65.736 204.156 62.43 207.708 65.862 211.098C65.862 211.098 70.488 207.672 69.654 205.89C68.82 204.108 67.536 204.384 67.536 204.384Z" fill="black"/>
<path d="M79.8001 206.064C79.8001 206.064 79.0801 205.122 80.1361 205.008C81.1921 204.894 85.8961 206.148 84.7981 210.852C84.7981 210.852 79.0621 210.42 78.7981 208.452C78.5341 206.484 79.8001 206.064 79.8001 206.064Z" fill="#00B96D"/>
<path opacity="0.2" d="M79.8001 206.064C79.8001 206.064 79.0801 205.122 80.1361 205.008C81.1921 204.894 85.8961 206.148 84.7981 210.852C84.7981 210.852 79.0621 210.42 78.7981 208.452C78.5341 206.484 79.8001 206.064 79.8001 206.064Z" fill="black"/>
<path d="M61.2961 250.032H79.8421L82.3081 231.996H58.8301L61.2961 250.032Z" fill="#263238"/>
<path opacity="0.2" d="M61.2961 250.032H79.8421L82.3081 231.996H58.8301L61.2961 250.032Z" fill="white"/>
<path d="M84.636 230.532V232.248C84.636 232.799 84.4173 233.327 84.028 233.716C83.6387 234.105 83.1106 234.324 82.56 234.324H58.35C57.7995 234.324 57.2714 234.105 56.8821 233.716C56.4928 233.327 56.274 232.799 56.274 232.248V230.532H84.636Z" fill="#263238"/>
<path d="M239.172 59.586H221.934C220.527 59.586 219.178 60.1448 218.183 61.1395C217.189 62.1342 216.63 63.4833 216.63 64.89V79.89C216.629 80.587 216.766 81.2774 217.032 81.9216C217.298 82.5658 217.689 83.1512 218.181 83.6444C218.674 84.1375 219.259 84.5288 219.903 84.7957C220.547 85.0626 221.237 85.2 221.934 85.2H226.968L225.768 89.934L230.568 85.2H239.202C240.61 85.2 241.961 84.6406 242.957 83.6447C243.952 82.6489 244.512 81.2983 244.512 79.89V64.89C244.512 64.1904 244.374 63.4978 244.105 62.8519C243.836 62.206 243.442 61.6197 242.946 61.1267C242.449 60.6337 241.86 60.2438 241.213 59.9794C240.565 59.7149 239.871 59.5813 239.172 59.586Z" fill="#00B96D"/>
<path opacity="0.7" d="M239.172 59.586H221.934C220.527 59.586 219.178 60.1448 218.183 61.1395C217.189 62.1342 216.63 63.4833 216.63 64.89V79.89C216.629 80.587 216.766 81.2774 217.032 81.9216C217.298 82.5658 217.689 83.1512 218.181 83.6444C218.674 84.1375 219.259 84.5288 219.903 84.7957C220.547 85.0626 221.237 85.2 221.934 85.2H226.968L225.768 89.934L230.568 85.2H239.202C240.61 85.2 241.961 84.6406 242.957 83.6447C243.952 82.6489 244.512 81.2983 244.512 79.89V64.89C244.512 64.1904 244.374 63.4978 244.105 62.8519C243.836 62.206 243.442 61.6197 242.946 61.1267C242.449 60.6337 241.86 60.2438 241.213 59.9794C240.565 59.7149 239.871 59.5813 239.172 59.586Z" fill="white"/>
<path d="M230.556 79.02C234.251 79.02 237.246 76.0248 237.246 72.33C237.246 68.6352 234.251 65.64 230.556 65.64C226.861 65.64 223.866 68.6352 223.866 72.33C223.866 76.0248 226.861 79.02 230.556 79.02Z" fill="white"/>
<path d="M230.556 63.774C228.864 63.774 227.209 64.2758 225.802 65.216C224.395 66.1561 223.299 67.4924 222.651 69.0558C222.003 70.6192 221.834 72.3395 222.164 73.9992C222.494 75.6589 223.309 77.1834 224.506 78.38C225.702 79.5766 227.227 80.3915 228.887 80.7216C230.546 81.0517 232.267 80.8823 233.83 80.2347C235.393 79.5871 236.73 78.4905 237.67 77.0835C238.61 75.6764 239.112 74.0222 239.112 72.33C239.113 71.2062 238.892 70.0932 238.462 69.0548C238.032 68.0164 237.402 67.0729 236.608 66.2782C235.813 65.4836 234.869 64.8534 233.831 64.4237C232.793 63.994 231.68 63.7732 230.556 63.774ZM235.41 69.774L230.256 75.846C230.183 75.9337 230.091 76.004 229.987 76.0518C229.883 76.0995 229.77 76.1235 229.656 76.122C229.542 76.1227 229.429 76.0983 229.325 76.0506C229.221 76.003 229.13 75.9331 229.056 75.846L225.702 71.892C225.631 71.8138 225.577 71.7222 225.542 71.6225C225.507 71.5229 225.493 71.4172 225.5 71.312C225.507 71.2067 225.535 71.1039 225.583 71.0097C225.63 70.9155 225.696 70.8319 225.777 70.7638C225.857 70.6957 225.951 70.6445 226.052 70.6133C226.153 70.5821 226.259 70.5715 226.364 70.5821C226.469 70.5928 226.57 70.6245 226.663 70.6753C226.755 70.7262 226.837 70.7951 226.902 70.878L229.656 74.124L234.21 68.76C234.347 68.6091 234.537 68.5171 234.74 68.5036C234.943 68.4901 235.144 68.556 235.299 68.6875C235.455 68.819 235.554 69.0058 235.574 69.2085C235.595 69.4112 235.536 69.6139 235.41 69.774Z" fill="#00B96D"/>
<path d="M236.184 152.136C236.184 152.136 225.738 150.816 209.91 155.136C209.91 155.136 207.366 126.852 207.666 122.964C207.966 119.076 232.104 120.216 232.104 120.216C232.104 120.216 232.704 131.538 234.276 138.366C235.848 145.194 237 150.822 236.184 152.136Z" fill="#00B96D"/>
<path opacity="0.2" d="M236.184 152.136C236.184 152.136 225.738 150.816 209.91 155.136C209.91 155.136 207.366 126.852 207.666 122.964C207.966 119.076 232.104 120.216 232.104 120.216C232.104 120.216 232.704 131.538 234.276 138.366C235.848 145.194 237 150.822 236.184 152.136Z" fill="black"/>
<path d="M202.278 245.772L206.538 246.978L207.552 240.348L208.098 236.802L203.838 235.596L203.112 240.348L202.278 245.772Z" fill="#E4897B"/>
<path d="M226.77 246.12L231.162 246.702L231.204 240.348L231.234 236.4L226.836 235.824L226.806 240.348L226.77 246.12Z" fill="#E4897B"/>
<path opacity="0.2" d="M226.836 235.824L226.806 240.348H231.204L231.234 236.4L226.836 235.824Z" fill="black"/>
<path opacity="0.2" d="M203.112 240.348H207.552L208.098 236.802L203.838 235.596L203.112 240.348Z" fill="black"/>
<path d="M183.366 125.286L179.136 124.038L179.91 128.868C179.91 128.868 183.75 129.75 184.11 127.752L183.366 125.286Z" fill="#E4897B"/>
<path d="M174.912 125.16L176.988 129.084L179.91 128.868L179.136 124.038L174.912 125.16Z" fill="#E4897B"/>
<path d="M189.204 126.522L182.256 124.968L181.626 128.34L187.932 129.876L189.204 126.522Z" fill="#E4897B"/>
<path d="M210.222 123.474L209.814 123.96C208.938 124.986 206.814 127.464 204.6 129.6C202.8 131.34 201 132.858 199.8 133.164C196.398 134.04 184.032 130.398 184.032 130.398L185.31 125.382C185.31 125.382 196.83 126.912 197.724 126.912C198.402 126.912 205.41 116.76 207.108 115.926L210.222 123.474Z" fill="#00B96D"/>
<path opacity="0.2" d="M209.814 123.96C208.938 124.986 206.814 127.464 204.6 129.6C205.044 126.084 206.334 122.856 208.032 120.816C208.19 120.619 208.372 120.442 208.572 120.288L209.814 123.96Z" fill="black"/>
<path d="M202.332 245.106L207.168 244.98C207.255 244.977 207.341 245.004 207.411 245.057C207.48 245.109 207.53 245.184 207.552 245.268L208.572 249.162C208.596 249.255 208.599 249.353 208.581 249.447C208.563 249.542 208.523 249.631 208.465 249.708C208.408 249.786 208.333 249.849 208.248 249.893C208.163 249.938 208.068 249.963 207.972 249.966C206.226 249.966 203.7 249.966 201.51 250.008C198.942 250.08 197.31 249.954 194.31 250.008C192.51 250.056 191.91 248.244 192.678 248.058C196.116 247.206 198.366 247.374 201.294 245.454C201.603 245.248 201.961 245.128 202.332 245.106Z" fill="#263238"/>
<path d="M201.912 245.73C201.204 245.886 199.944 246.096 199.44 245.682C199.367 245.621 199.309 245.544 199.271 245.456C199.234 245.368 199.217 245.273 199.224 245.178C199.224 245.121 199.239 245.065 199.267 245.015C199.296 244.966 199.337 244.925 199.386 244.896C199.92 244.578 201.726 245.436 201.936 245.532C201.954 245.542 201.97 245.557 201.98 245.575C201.991 245.593 201.996 245.613 201.996 245.634C201.995 245.657 201.986 245.679 201.971 245.697C201.956 245.714 201.935 245.726 201.912 245.73ZM199.512 245.064H199.476C199.456 245.076 199.439 245.092 199.428 245.112C199.416 245.132 199.41 245.155 199.41 245.178C199.405 245.24 199.415 245.302 199.439 245.36C199.463 245.417 199.5 245.468 199.548 245.508C199.83 245.742 200.562 245.766 201.534 245.574C200.832 245.28 199.854 244.938 199.524 245.064H199.512Z" fill="#00B96D"/>
<path d="M201.912 245.73H201.84C201.294 245.502 200.202 244.578 200.262 244.08C200.262 243.96 200.358 243.81 200.646 243.774C200.752 243.76 200.859 243.767 200.962 243.795C201.065 243.823 201.162 243.871 201.246 243.936C201.846 244.386 201.984 245.568 201.996 245.616C201.998 245.634 201.995 245.653 201.988 245.669C201.98 245.686 201.969 245.701 201.954 245.712L201.912 245.73ZM200.568 244.008C200.478 244.038 200.472 244.086 200.472 244.104C200.436 244.404 201.18 245.136 201.738 245.448C201.674 244.944 201.451 244.473 201.102 244.104C201.043 244.054 200.974 244.018 200.899 243.997C200.825 243.976 200.747 243.972 200.67 243.984C200.635 243.987 200.601 243.995 200.568 244.008Z" fill="#00B96D"/>
<path d="M226.944 245.106L231.78 244.98C231.868 244.977 231.955 245.004 232.025 245.056C232.096 245.108 232.147 245.183 232.17 245.268L233.184 249.162C233.21 249.255 233.214 249.353 233.196 249.448C233.178 249.543 233.138 249.633 233.081 249.711C233.023 249.788 232.948 249.851 232.862 249.896C232.776 249.94 232.681 249.964 232.584 249.966C230.838 249.966 228.312 249.966 226.116 250.008C223.554 250.08 221.916 249.954 218.916 250.008C217.116 250.056 216.516 248.244 217.284 248.058C220.722 247.206 222.966 247.374 225.894 245.454C226.207 245.246 226.569 245.126 226.944 245.106Z" fill="#263238"/>
<path d="M226.53 245.73C225.822 245.886 224.556 246.096 224.058 245.682C223.985 245.621 223.927 245.544 223.889 245.456C223.852 245.368 223.835 245.273 223.842 245.178C223.842 245.121 223.857 245.065 223.885 245.015C223.914 244.966 223.955 244.925 224.004 244.896C224.532 244.578 226.344 245.436 226.548 245.532C226.568 245.54 226.585 245.554 226.596 245.573C226.606 245.591 226.611 245.613 226.608 245.634C226.606 245.656 226.598 245.677 226.584 245.694C226.57 245.711 226.551 245.724 226.53 245.73ZM224.13 245.064H224.094C224.074 245.075 224.058 245.092 224.047 245.112C224.037 245.132 224.032 245.155 224.034 245.178C224.028 245.24 224.037 245.303 224.062 245.36C224.086 245.418 224.124 245.469 224.172 245.508C224.454 245.742 225.18 245.766 226.158 245.574C225.444 245.28 224.466 244.938 224.136 245.064H224.13Z" fill="#00B96D"/>
<path d="M226.53 245.73H226.452C225.912 245.502 224.814 244.578 224.88 244.08C224.88 243.96 224.97 243.81 225.258 243.774C225.364 243.76 225.471 243.766 225.574 243.794C225.678 243.822 225.774 243.87 225.858 243.936C226.278 244.404 226.54 244.991 226.608 245.616C226.611 245.634 226.609 245.653 226.601 245.67C226.594 245.687 226.582 245.702 226.566 245.712L226.53 245.73ZM225.18 244.008C225.096 244.038 225.09 244.086 225.09 244.104C225.048 244.404 225.798 245.136 226.356 245.448C226.287 244.945 226.065 244.476 225.72 244.104C225.661 244.055 225.591 244.018 225.517 243.998C225.442 243.977 225.364 243.972 225.288 243.984L225.18 244.008Z" fill="#00B96D"/>
<path d="M235.83 149.556C238.158 159.642 234.162 238.992 234.162 238.992H226.446L223.146 172.866L210.996 238.992L202.746 238.392C208.146 187.164 212.904 156.582 212.904 156.582V152.718L235.83 149.556Z" fill="#263238"/>
<path opacity="0.4" d="M202.746 238.392L210.996 238.992L220.56 186.936L223.146 172.866L226.446 238.992H234.162C234.162 238.992 238.158 159.642 235.83 149.556L212.892 152.718V156.582C212.892 156.582 208.14 187.164 202.746 238.392Z" fill="white"/>
<path d="M231.672 112.2C231.436 117.022 231.558 121.856 232.038 126.66C232.362 130.02 232.806 133.194 233.28 136.056C234.39 142.77 235.65 147.804 235.83 149.562L212.892 152.724C204.528 129.324 207.678 115.728 207.678 115.728C209.393 115.02 211.151 114.419 212.94 113.928C213.318 113.826 213.702 113.73 214.098 113.64C217.32 113.006 220.575 112.557 223.848 112.296C224.448 112.242 225.102 112.2 225.714 112.17C228.846 112.014 231.672 112.2 231.672 112.2Z" fill="#263238"/>
<path d="M219.396 101.67C219.564 104.88 219.906 110.904 222.576 112.434C222.576 112.434 220.914 115.596 217.32 115.92C214.602 116.16 214.782 113.478 214.782 113.478C216.354 112.308 215.982 110.322 214.782 108.078L219.396 101.67Z" fill="#E4897B"/>
<path opacity="0.2" d="M217.512 104.286L214.8 108.078C215.086 108.597 215.326 109.139 215.52 109.698C216.78 109.194 218.226 107.298 218.016 105.924C217.95 105.352 217.779 104.796 217.512 104.286Z" fill="black"/>
<path d="M207.696 95.208C207.174 96.876 207.462 100.296 209.784 99.186C212.106 98.076 208.596 92.346 207.696 95.208Z" fill="#263238"/>
<path d="M219.696 97.464C219.954 101.742 220.296 104.232 218.43 106.656C215.592 110.298 210.096 108.942 208.56 104.814C207.18 101.094 206.994 94.722 210.96 92.562C211.839 92.0837 212.825 91.8362 213.826 91.8428C214.827 91.8493 215.81 92.1096 216.682 92.5994C217.555 93.0891 218.289 93.7923 218.817 94.6431C219.344 95.4938 219.646 96.4644 219.696 97.464Z" fill="#E4897B"/>
<path d="M216.696 95.136V90.336C216.696 90.336 221.784 89.958 221.556 92.562C224.376 93.96 223.044 98.346 219.258 100.494C217.182 98.832 217.422 94.836 217.422 94.836C217.2 94.95 216.948 95.046 216.696 95.136Z" fill="#263238"/>
<path d="M221.766 100.8C221.668 101.323 221.466 101.822 221.172 102.266C220.879 102.71 220.499 103.091 220.056 103.386C218.856 104.172 217.818 103.206 217.776 101.856C217.74 100.656 218.31 98.76 219.69 98.52C219.992 98.4729 220.301 98.5015 220.589 98.603C220.877 98.7045 221.135 98.8759 221.341 99.1018C221.547 99.3277 221.693 99.601 221.767 99.8974C221.842 100.194 221.841 100.504 221.766 100.8Z" fill="#E4897B"/>
<path d="M213.378 99.372C213.42 99.72 213.27 100.02 213.042 100.044C212.814 100.068 212.598 99.81 212.556 99.444C212.514 99.078 212.664 98.796 212.886 98.772C213.108 98.748 213.336 99 213.378 99.372Z" fill="#263238"/>
<path d="M209.454 99.81C209.496 100.158 209.346 100.458 209.118 100.482C208.89 100.506 208.674 100.248 208.632 99.882C208.59 99.516 208.74 99.234 208.968 99.21C209.196 99.186 209.4 99.462 209.454 99.81Z" fill="#263238"/>
<path d="M210.72 99.84C210.417 100.913 209.967 101.939 209.382 102.888C209.641 103.021 209.925 103.098 210.215 103.113C210.506 103.129 210.797 103.083 211.068 102.978L210.72 99.84Z" fill="#DE5753"/>
<path d="M213.09 104.094C212.942 104.132 212.792 104.16 212.64 104.178C212.613 104.178 212.587 104.167 212.568 104.148C212.549 104.129 212.538 104.103 212.538 104.076C212.538 104.049 212.549 104.023 212.568 104.004C212.587 103.985 212.613 103.974 212.64 103.974C213.071 103.935 213.487 103.795 213.853 103.566C214.22 103.336 214.528 103.024 214.752 102.654C214.757 102.642 214.765 102.631 214.774 102.622C214.784 102.613 214.795 102.606 214.808 102.601C214.82 102.597 214.833 102.595 214.846 102.596C214.86 102.597 214.872 102.6 214.884 102.606C214.896 102.612 214.907 102.62 214.917 102.63C214.926 102.64 214.933 102.652 214.937 102.665C214.942 102.678 214.944 102.691 214.943 102.705C214.942 102.719 214.938 102.732 214.932 102.744C214.736 103.085 214.471 103.381 214.154 103.613C213.836 103.846 213.474 104.01 213.09 104.094Z" fill="#263238"/>
<path d="M214.434 97.974C214.398 97.9824 214.36 97.9814 214.324 97.9708C214.289 97.9603 214.256 97.9408 214.23 97.914C214.056 97.7236 213.841 97.5762 213.6 97.4836C213.36 97.3909 213.101 97.3554 212.844 97.38C212.818 97.3861 212.79 97.3867 212.764 97.3817C212.737 97.3768 212.712 97.3664 212.689 97.3512C212.667 97.336 212.647 97.3163 212.633 97.2934C212.618 97.2705 212.608 97.2448 212.604 97.218C212.599 97.1916 212.599 97.1644 212.604 97.138C212.61 97.1117 212.62 97.0866 212.635 97.0643C212.65 97.042 212.67 97.0229 212.692 97.0081C212.715 96.9932 212.74 96.983 212.766 96.978C213.09 96.9394 213.419 96.9786 213.724 97.0924C214.03 97.2061 214.304 97.3911 214.524 97.632C214.544 97.6505 214.559 97.6728 214.57 97.6976C214.581 97.7224 214.586 97.749 214.586 97.776C214.586 97.803 214.581 97.8297 214.57 97.8544C214.559 97.8792 214.544 97.9015 214.524 97.92C214.499 97.9444 214.468 97.9629 214.434 97.974Z" fill="#263238"/>
<path d="M207.6 98.652C207.561 98.6668 207.519 98.6668 207.48 98.652C207.429 98.6343 207.388 98.5972 207.364 98.5489C207.34 98.5006 207.337 98.4449 207.354 98.394C207.453 98.0852 207.625 97.8049 207.856 97.5771C208.087 97.3494 208.37 97.1809 208.68 97.086C208.733 97.0725 208.788 97.0804 208.835 97.1079C208.882 97.1355 208.916 97.1805 208.929 97.233C208.943 97.2855 208.935 97.3413 208.907 97.3879C208.88 97.4346 208.835 97.4685 208.782 97.482C208.537 97.5576 208.314 97.6924 208.133 97.8744C207.952 98.0565 207.818 98.2802 207.744 98.526C207.733 98.5575 207.713 98.5855 207.688 98.6075C207.663 98.6296 207.633 98.6449 207.6 98.652Z" fill="#263238"/>
<path d="M218.952 96.912C218.952 96.912 215.952 95.814 214.584 94.074C214.584 94.074 211.86 94.788 211.302 95.874C211.048 95.6559 210.883 95.3513 210.84 95.0189C210.796 94.6865 210.878 94.3499 211.068 94.074C211.068 94.074 209.028 94.506 208.626 95.874C208.295 95.7162 208.022 95.4561 207.85 95.1321C207.677 94.8081 207.613 94.4373 207.666 94.074C207.666 94.074 206.76 94.416 206.466 95.874C206.466 95.874 204.216 91.182 211.65 89.838C211.088 89.6471 210.498 89.5478 209.904 89.544C209.904 89.544 215.094 87.45 219.204 89.364C223.314 91.278 222.6 94.986 218.952 96.912Z" fill="#263238"/>
<path d="M237.6 153.6L230.4 154.56C230.4 154.56 227.43 133.806 226.122 127.104V112.8L229.884 111.81L232.8 112.8C233.6 115.678 234.215 118.604 234.642 121.56C234.996 123.804 235.314 126.204 235.596 128.634C235.986 131.946 236.31 135.318 236.586 138.474C237.018 143.568 237.306 148.074 237.462 150.828C237.552 152.556 237.6 153.6 237.6 153.6Z" fill="#00B96D"/>
<path d="M226.128 127.092C226.128 127.092 226.728 116.994 229.89 111.786C229.89 111.786 229.812 110.298 229.182 110.058C228.552 109.818 226.128 111.258 226.128 111.258C226.128 111.258 224.622 110.226 224.292 110.706C223.962 111.186 223.158 114.378 226.128 127.092Z" fill="#00B96D"/>
<path opacity="0.7" d="M226.128 127.092C226.128 127.092 226.728 116.994 229.89 111.786C229.89 111.786 229.812 110.298 229.182 110.058C228.552 109.818 226.128 111.258 226.128 111.258C226.128 111.258 224.622 110.226 224.292 110.706C223.962 111.186 223.158 114.378 226.128 127.092Z" fill="white"/>
<path d="M209.76 156.366L210.582 156.966C210.582 156.966 209.382 150.276 209.874 133.356C209.874 132.54 209.928 131.754 209.958 131.004C210.558 116.688 212.79 114.084 212.958 113.928L210.882 114.636L207.12 115.932C205.986 128.142 209.76 156.366 209.76 156.366Z" fill="#00B96D"/>
<path d="M210.084 128.538C210.084 128.538 208.008 118.722 208.626 115.338C209.244 111.954 211.458 113.46 211.458 113.46C211.458 113.46 213.492 111.816 214.098 113.628C214.098 113.628 211.302 115.596 210.084 128.538Z" fill="#00B96D"/>
<path opacity="0.7" d="M210.084 128.538C210.084 128.538 208.008 118.722 208.626 115.338C209.244 111.954 211.458 113.46 211.458 113.46C211.458 113.46 213.492 111.816 214.098 113.628C214.098 113.628 211.302 115.596 210.084 128.538Z" fill="white"/>
<path opacity="0.2" d="M235.584 128.61C232.512 126.888 232.104 122.394 232.104 122.394C232.29 122.322 233.43 121.932 234.63 121.536C234.984 123.78 235.302 126.18 235.584 128.61Z" fill="black"/>
<path opacity="0.2" d="M220.56 186.936L223.146 172.866L222.648 165.42C222.648 165.42 219.102 178.332 220.56 186.936Z" fill="black"/>
<path opacity="0.2" d="M237.45 150.804C235.518 150.672 233.85 150.546 233.85 150.546L233.484 142.692C234.086 142.315 234.809 142.182 235.506 142.32C235.981 141.065 236.34 139.77 236.58 138.45C237 143.544 237.294 148.056 237.45 150.804Z" fill="black"/>
<path d="M238.11 138.444L234.348 144.486L237.324 146.196L240.858 140.754L238.11 138.444Z" fill="#E4897B"/>
<path d="M232.638 112.704C235.17 112.98 245.934 127.752 246.408 132.204C246.882 136.656 240.084 144.342 240.084 144.342L235.548 141.672C235.548 141.672 240.156 134.586 240.396 132.672C240.636 130.758 231.966 123.024 231.966 123.024C231.311 121.242 230.95 119.366 230.898 117.468C230.778 114.216 232.638 112.704 232.638 112.704Z" fill="#00B96D"/>
<path d="M233.478 142.698C233.478 142.698 237.348 143.526 238.908 145.962C238.908 145.962 237.288 151.032 236.13 151.584C234.972 152.136 232.104 152.136 232.104 152.136C232.104 152.136 231.918 146.496 233.478 142.698Z" fill="#00B96D"/>
</svg>
