<svg width="66" height="61" viewBox="0 0 66 61" fill="none" xmlns="http://www.w3.org/2000/svg">
<path d="M33 0C14.7738 0 0 12.017 0 26.84C0 35.0579 4.55229 42.4035 11.7057 47.3274C11.8883 51.0752 11.2842 56.2503 5.9049 58.6362L5.89498 58.641C5.65465 58.7289 5.44774 58.8848 5.30166 59.0882C5.15557 59.2916 5.0772 59.5328 5.07692 59.78C5.07692 60.1036 5.21065 60.4139 5.44867 60.6427C5.6867 60.8715 6.00953 61 6.34615 61C6.37646 61 6.40514 60.9954 6.4354 60.9952C6.44201 60.9953 6.44862 60.9953 6.45523 60.9952C12.6339 60.9572 17.8791 57.7476 21.4976 54.3567C22.645 53.2807 24.2445 52.7512 25.8209 53.0366C28.1309 53.4588 30.5326 53.68 33 53.68C51.2262 53.68 66 41.663 66 26.84C66 12.017 51.2262 0 33 0Z" fill="white"/>
</svg>
