<svg width="29" height="29" viewBox="0 0 29 29" fill="none" xmlns="http://www.w3.org/2000/svg">
<path d="M26.3483 12.1335H25.375V12.0833H14.5V16.9167H21.3289C20.3326 19.7303 17.6555 21.75 14.5 21.75C10.4961 21.75 7.24996 18.5038 7.24996 14.5C7.24996 10.4962 10.4961 7.24999 14.5 7.24999C16.3481 7.24999 18.0295 7.9472 19.3097 9.08605L22.7275 5.66828C20.5694 3.65701 17.6827 2.41666 14.5 2.41666C7.82694 2.41666 2.41663 7.82697 2.41663 14.5C2.41663 21.173 7.82694 26.5833 14.5 26.5833C21.173 26.5833 26.5833 21.173 26.5833 14.5C26.5833 13.6898 26.4999 12.899 26.3483 12.1335Z" fill="#FFC107"/>
<path d="M3.80994 8.8758L7.77992 11.7873C8.85412 9.12774 11.4557 7.24999 14.5001 7.24999C16.3482 7.24999 18.0296 7.9472 19.3098 9.08605L22.7276 5.66828C20.5695 3.65701 17.6828 2.41666 14.5001 2.41666C9.85885 2.41666 5.83389 5.03693 3.80994 8.8758Z" fill="#FF3D00"/>
<path d="M14.5 26.5833C17.6211 26.5833 20.4571 25.3889 22.6013 23.4465L18.8615 20.2819C17.6075 21.2355 16.0753 21.7512 14.5 21.75C11.3571 21.75 8.68851 19.746 7.68317 16.9493L3.7428 19.9852C5.74259 23.8984 9.8038 26.5833 14.5 26.5833Z" fill="#4CAF50"/>
<path d="M26.3483 12.1335H25.375V12.0833H14.5V16.9167H21.3289C20.8523 18.2558 19.9939 19.4259 18.8597 20.2825L18.8615 20.2813L22.6013 23.4459C22.3366 23.6864 26.5833 20.5417 26.5833 14.5C26.5833 13.6898 26.5 12.899 26.3483 12.1335Z" fill="#1976D2"/>
</svg>
