<svg width="28" height="28" viewBox="0 0 28 28" fill="none" xmlns="http://www.w3.org/2000/svg">
<g clip-path="url(#clip0_87_186)">
<path d="M27.7445 0.255518C27.8656 0.376849 27.9485 0.531098 27.9827 0.699103C28.0169 0.867109 28.001 1.04147 27.937 1.20052L17.7537 26.6578C17.664 26.882 17.5142 27.077 17.3207 27.2216C17.1272 27.3661 16.8976 27.4544 16.6572 27.4768C16.4167 27.4993 16.1748 27.4549 15.9579 27.3487C15.741 27.2425 15.5577 27.0785 15.428 26.8748L9.8665 18.1335L1.12525 12.572C0.921059 12.4425 0.756618 12.2591 0.650075 12.042C0.543532 11.8249 0.499029 11.5826 0.521476 11.3419C0.543924 11.1011 0.632449 10.8712 0.777284 10.6776C0.922119 10.4839 1.11763 10.3341 1.34225 10.2445L26.7995 0.0647679C26.9585 0.000739407 27.1329 -0.0151501 27.3009 0.0190732C27.4689 0.0532965 27.6232 0.136124 27.7445 0.257268V0.255518ZM11.613 17.6225L16.4447 25.214L24.7275 4.50802L11.613 17.6225ZM23.4902 3.27077L2.78425 11.5535L10.3775 16.3835L23.4902 3.27077Z" fill="#00B96D"/>
</g>
<defs>
<clipPath id="clip0_87_186">
<rect width="28" height="28" fill="white"/>
</clipPath>
</defs>
</svg>
